<svg width="720" height="240" viewBox="0 0 720 240" fill="none" xmlns="http://www.w3.org/2000/svg">
<g clip-path="url(#clip0)">
<path d="M0 0H720V240H0V0Z" fill="#FFAD0E"/>
<mask id="mask0" mask-type="alpha" maskUnits="userSpaceOnUse" x="0" y="0" width="720" height="240">
<path d="M0 0H720V240H0V0Z" fill="#FFAD0E"/>
</mask>
<g mask="url(#mask0)">
<path fill-rule="evenodd" clip-rule="evenodd" d="M720 193.74L690 191.595C660 189.144 600 184.856 540 191.595C480 198.029 420 215.798 360 224.682C300 233.26 240 233.26 180 225.601C120 217.942 60 202.624 30 194.658L0 187V240H720V193.74Z" fill="#FFAD0E" stroke="white" stroke-opacity="0.16"/>
<path fill-rule="evenodd" clip-rule="evenodd" d="M0 49.7516L30 52.0579C60 54.6937 120 59.3063 180 52.0579C240 45.1386 300 26.0287 360 16.474C420 7.24842 480 7.24842 540 15.4857C600 23.7229 660 40.1964 690 48.7637L720 57V5.66244e-07H0V49.7516Z" fill="#FFAD0E" stroke="white" stroke-opacity="0.16"/>
</g>
<path d="M0 77H19.9575L51.9187 131.342L51.1875 114.779V77H68.3719V161.909H50.2594L16.4475 104.692L17.1787 121.011V161.909H0V77ZM126.157 161.909C118.029 161.909 110.633 160.075 103.984 156.407C97.4588 152.615 92.2837 147.48 88.4587 141.01C84.6337 134.54 82.7325 127.38 82.7325 119.5C82.7325 111.62 84.645 104.522 88.4587 97.9896C92.2725 91.4572 97.4588 86.374 103.984 82.5927C110.644 78.8963 118.029 77 126.157 77C134.286 77 141.683 78.8963 148.331 82.6833C154.98 86.4702 160.217 91.6101 164.036 98.0802C167.856 104.55 169.763 111.711 169.763 119.591C169.763 127.47 167.85 134.569 164.036 141.101C160.223 147.633 155.036 152.717 148.331 156.498C141.677 160.166 134.286 162 126.157 162V161.909ZM126.157 145.777C133.672 145.777 139.894 143.399 144.821 138.627C149.749 133.736 152.212 127.38 152.212 119.551C152.212 111.722 149.749 105.371 144.821 100.475C139.894 95.5782 133.672 93.1385 126.157 93.1385C118.766 93.1385 112.545 95.5838 107.494 100.475C102.566 105.365 100.102 111.722 100.102 119.551C100.102 127.249 102.566 133.55 107.494 138.44C112.545 143.331 118.766 145.777 126.157 145.777ZM198.354 94.5479H175.258V77H238.821V94.5479H215.719V161.909H198.349L198.354 94.5479ZM265.466 77H285.052L315.174 161.909H296.139L289.671 141.554H259.858L253.451 161.909H234.236L265.466 77ZM283.944 125.596L278.038 108.541L274.663 98.6349L271.513 108.541L265.416 125.596H283.894H283.944ZM326.081 77H356.754C365.006 77 371.717 80.9624 376.892 85.8023C382.191 90.5685 384.84 96.7443 384.84 104.324C384.893 109.676 383.059 114.875 379.665 118.996C376.366 123.174 371.837 126.192 366.727 127.617V128.353L388.755 161.185V161.909H368.438L347.512 129.814H343.26V161.909H326.081V77ZM357.131 113.681C360.214 113.681 362.678 112.832 364.523 111.111C366.368 109.39 367.296 107.075 367.296 104.148C367.296 101.222 366.373 98.884 364.523 97.1858C362.672 95.4876 360.208 94.5479 357.188 94.5479H343.327V113.624H357.188L357.131 113.681ZM422.618 77.3679H442.204L473.102 161.909H454.067L447.879 141.554H418.067L411.379 161.909H392.164L422.618 77.3679ZM442.204 125.596L436.298 108.541L432.922 98.6349L429.784 108.541L423.686 125.596H442.164H442.204ZM483.789 77.3679H500.974L501.536 113.494H502.459L531.709 77.3679H552.037V78.4718L522.788 113.5L555.497 159.532V161.909H534.375L510.722 127.249L501.48 137.891V161.909H484.296L483.733 77.3679H483.789ZM589.894 77.3679H609.48L640.716 161.909H621.681L615.212 141.554H585.399L578.998 161.909H559.777L589.894 77.3679ZM609.48 125.596L603.574 108.541L600.199 98.6349L597.049 108.541L590.951 125.596H609.429H609.48ZM651.628 77.3679H671.586L703.552 131.285L702.821 114.779V77.3679H720V161.909H701.887L668.137 104.692L668.869 121.011V161.909H651.684V77.3679H651.628Z" fill="#FFA800"/>
</g>
<defs>
<clipPath id="clip0">
<rect width="720" height="240" fill="white"/>
</clipPath>
</defs>
</svg>
