<svg width="856" height="536" viewBox="0 0 856 536" fill="none" xmlns="http://www.w3.org/2000/svg">
<g id="card_side_b">
<rect id="bg" x="2" y="2" width="852" height="532" rx="30" fill="black" stroke="white" stroke-width="4" stroke-linecap="round" stroke-linejoin="bevel"/>
<g id="bg_patt">
<mask id="mask0" mask-type="alpha" maskUnits="userSpaceOnUse" x="80" y="188" width="696" height="348">
<rect id="bg_2" x="80" y="188" width="696" height="348" fill="black"/>
</mask>
<g mask="url(#mask0)">
<path id="Vector" d="M428 768C556.13 768 660 664.13 660 536C660 407.87 556.13 304 428 304C299.87 304 196 407.87 196 536C196 664.13 299.87 768 428 768Z" stroke="white" stroke-opacity="0.04" stroke-width="2"/>
<path id="Vector_2" d="M428 644C487.647 644 536 595.647 536 536C536 476.353 487.647 428 428 428C368.353 428 320 476.353 320 536C320 595.647 368.353 644 428 644Z" stroke="white" stroke-opacity="0.04" stroke-width="2"/>
<path id="Line" d="M320 644L536 428" stroke="white" stroke-opacity="0.04" stroke-width="2"/>
<path id="Vector_3" d="M428 868C611.359 868 760 719.359 760 536C760 352.641 611.359 204 428 204C244.641 204 96 352.641 96 536C96 719.359 244.641 868 428 868Z" stroke="white" stroke-opacity="0.04" stroke-width="4" stroke-dasharray="4 24"/>
</g>
</g>
<path id="Vector_4" d="M769.023 289.816C768.867 289.816 768.763 289.816 768.606 289.868L752.831 190.251C755.591 189.26 757.413 186.654 757.413 183.735C757.413 179.877 754.289 176.75 750.436 176.75C748.822 176.75 747.261 177.323 745.959 178.366L676.09 108.253C676.923 107.054 677.34 105.699 677.34 104.292C677.34 100.434 674.216 97.3065 670.363 97.3065C667.188 97.3065 664.48 99.3917 663.647 102.467L563.895 86.6203C563.686 82.9713 560.615 80 556.918 80C553.065 80 549.942 83.1277 549.942 86.9852C549.942 88.0799 550.202 89.1745 550.775 90.2171L462.892 135.047C461.539 133.588 459.716 132.754 457.738 132.754C453.885 132.754 450.761 135.881 450.761 139.739C450.761 142.085 451.907 144.222 453.885 145.525L409.632 232.475C408.747 232.11 407.862 231.953 406.976 231.953C403.124 231.953 400 235.081 400 238.939C400 242.796 403.124 245.924 406.976 245.924C407.133 245.924 407.289 245.924 407.445 245.872L422.491 341.11C419.211 341.735 416.816 344.602 416.816 347.938C416.816 351.796 419.94 354.924 423.793 354.924C424.886 354.924 425.927 354.663 426.917 354.142L498.972 426.287C498.243 427.434 497.879 428.685 497.879 430.04C497.879 433.898 501.002 437.025 504.855 437.025C507.614 437.025 510.061 435.409 511.207 432.907L610.855 448.702C610.855 448.806 610.855 448.911 610.855 449.015C610.855 452.872 613.979 456 617.832 456C621.684 456 624.808 452.872 624.808 449.015C624.808 447.972 624.548 446.93 624.079 445.939L713.42 400.379C714.773 401.839 716.595 402.673 718.574 402.673C722.427 402.673 725.55 399.545 725.55 395.688C725.55 393.29 724.301 391.1 722.27 389.797L766.316 303.213C767.201 303.577 768.086 303.786 769.023 303.786C772.876 303.786 775.999 300.658 775.999 296.801C776.051 292.943 772.876 289.816 769.023 289.816ZM711.702 396.887L686.139 400.848C685.93 400.119 685.566 399.389 685.097 398.763L711.858 374.055C712.951 375.045 714.357 375.566 715.867 375.566L717.272 388.911C713.992 389.537 711.649 392.352 711.649 395.74C711.545 396.053 711.597 396.418 711.702 396.887ZM589.51 437.703C589.822 437.39 590.082 437.025 590.343 436.608L604.243 443.229L589.51 437.703ZM412.235 243.578L425.407 253.326V312.752C424.261 313.013 423.22 313.586 422.387 314.42C419.94 316.87 419.94 320.884 422.387 323.386C423.272 324.272 424.366 324.846 425.615 325.106L424.053 341.005C424.001 341.005 423.897 341.005 423.845 341.005H423.793L408.695 245.715C410.048 245.35 411.298 244.621 412.235 243.578ZM464.714 139.113L480.073 136.35C480.281 137.08 480.646 137.758 481.114 138.436L458.987 158.818C457.894 157.827 456.488 157.306 454.979 157.306C451.647 157.306 448.939 160.017 448.939 163.353C448.939 166.272 451.074 168.774 453.885 169.295L453.104 179.043L430.925 209.643C428.426 207.974 425.094 208.235 422.96 210.425C420.513 212.875 420.513 216.836 422.908 219.286L411.037 233.309C410.933 233.257 410.881 233.204 410.777 233.152L455.031 146.203C455.916 146.62 456.853 146.776 457.79 146.776C461.643 146.776 464.766 143.648 464.766 139.791C464.766 139.53 464.766 139.322 464.714 139.113ZM441.807 260.937C441.078 261.249 440.401 261.771 439.828 262.396L426.656 252.648V221.111C427.385 221.215 428.114 221.163 428.791 221.007L441.807 260.937ZM492.308 133.327L498.659 131.294C499.284 132.962 500.638 134.265 502.304 134.891L502.564 135.673L492.412 134.682C492.412 134.213 492.412 133.744 492.308 133.327ZM527.086 138.071L510.217 130.304C510.322 129.887 510.322 129.522 510.322 129.157L542.445 136.507C541.664 137.341 541.143 138.331 540.935 139.426L527.086 138.071ZM704.881 152.25L697.332 157.254L683.119 137.706C683.535 137.237 683.9 136.663 684.16 136.09L704.829 149.747C704.673 150.164 704.569 150.529 704.569 150.946C704.621 151.363 704.725 151.833 704.881 152.25ZM510.738 353.777L476.168 354.09C475.856 351.014 473.305 348.616 470.181 348.616C469.973 348.616 469.712 348.616 469.504 348.668L467.265 305.193C467.318 305.193 467.318 305.193 467.37 305.193C468.359 305.193 469.296 304.881 470.129 304.307L511.675 349.294C510.946 350.128 510.582 351.223 510.582 352.317C510.53 352.838 510.582 353.308 510.738 353.777ZM604.92 115.812L614.396 113.988L655.942 127.489L641.104 138.071C640.271 137.341 639.178 136.976 638.084 136.976C637.824 136.976 637.564 136.976 637.303 137.028C636.158 135.516 634.388 134.63 632.514 134.63C631.733 134.63 631.004 134.787 630.275 135.099L604.452 118.21C604.764 117.532 604.972 116.855 604.972 116.125C604.972 116.021 604.972 115.916 604.92 115.812ZM725.29 183.683L718.314 186.133L713.888 180.034L724.145 179.565C724.093 179.825 724.093 180.034 724.093 180.242C724.093 181.493 724.509 182.692 725.29 183.683ZM733.151 327.817L657.712 355.549C657.035 354.246 655.786 353.36 654.328 353.099L656.931 300.502C658.545 300.398 660.003 299.459 660.732 298L733.099 325.628C732.995 325.993 732.943 326.41 732.943 326.722C733.047 327.087 733.047 327.452 733.151 327.817ZM569.465 161.841L525.316 183.996C524.431 182.692 522.973 181.91 521.411 181.91C521.099 181.91 520.734 181.963 520.37 182.015L504.282 137.08L526.93 139.322L568.893 158.609C568.84 158.922 568.788 159.235 568.788 159.495C568.84 160.329 569.049 161.111 569.465 161.841ZM530.574 139.687L540.779 140.677C540.779 142.606 541.716 144.326 543.121 145.421L530.574 139.687ZM552.545 138.853L573.266 143.596C573.266 143.701 573.266 143.753 573.266 143.857C573.266 145.734 574.515 147.35 576.338 147.871L574.672 154.96C574.307 154.856 573.943 154.804 573.63 154.804C571.756 154.804 570.142 155.846 569.361 157.514L545.62 146.568C545.985 146.62 546.401 146.672 546.818 146.672C550.15 146.672 552.857 143.961 552.857 140.625C552.857 140.052 552.753 139.426 552.545 138.853ZM733.568 218.504L679.058 202.814C679.11 202.553 679.11 202.293 679.11 202.084C679.11 201.771 679.058 201.458 679.006 201.094L694.677 195.62C695.614 196.141 696.551 196.35 697.54 196.35C699.987 196.35 702.122 194.89 703.111 192.649L717.845 187.488L735.651 212.04C735.546 212.145 735.39 212.249 735.286 212.353C733.62 214.021 732.995 216.367 733.568 218.504ZM476.376 271.936C476.637 272.405 477.001 272.822 477.47 273.135L468.515 295.862C468.098 295.758 467.734 295.706 467.37 295.706C467.161 295.706 467.005 295.706 466.849 295.758L460.706 270.268L476.376 271.936ZM478.459 204.586L530.418 243.161C530.001 243.891 529.793 244.673 529.793 245.455C529.793 245.924 529.845 246.393 530.001 246.862L481.583 269.173C481.114 268.339 480.281 267.818 479.344 267.713L475.908 205.994C476.897 205.785 477.782 205.264 478.459 204.586ZM577.483 147.975C579.409 147.923 581.075 146.515 581.44 144.639L617.936 145.264C617.936 145.369 617.988 145.525 617.988 145.629L578.108 158.296C577.795 156.993 576.91 155.899 575.713 155.273L577.483 147.975ZM532.292 287.887L503.866 300.345C503.033 298.938 501.471 298.052 499.805 298.052C499.076 298.052 498.399 298.208 497.722 298.573L480.906 272.926C481.114 272.77 481.27 272.561 481.427 272.301L532.292 285.906C532.188 286.271 532.188 286.584 532.188 286.896C532.136 287.209 532.188 287.522 532.292 287.887ZM481.947 270.268L530.574 247.905C531.355 249.208 532.761 250.042 534.271 250.146L536.093 282.153V282.205C534.635 282.466 533.386 283.404 532.709 284.707L481.947 271.154C481.999 270.945 481.999 270.737 481.999 270.58C481.947 270.476 481.947 270.372 481.947 270.268ZM656.358 182.797L574.307 207.662C573.995 207.088 573.578 206.567 573.058 206.15L620.071 148.757C621.737 149.8 623.975 149.695 625.537 148.444L657.348 179.096C656.619 179.93 656.254 181.024 656.254 182.119C656.306 182.327 656.358 182.588 656.358 182.797ZM538.748 247.644L566.341 257.809L605.857 272.353C605.701 272.77 605.597 273.187 605.597 273.604L541.247 285.124C540.57 283.456 539.008 282.309 537.238 282.153L535.416 250.094C536.874 249.833 538.071 248.895 538.748 247.644ZM631.837 241.232L612.157 269.59C611.532 269.329 610.907 269.173 610.283 269.173C609.71 269.173 609.085 269.277 608.565 269.538L572.641 213.813C573.214 213.448 573.682 212.979 574.047 212.457L630.015 236.228L630.431 236.436C630.327 236.853 630.223 237.27 630.223 237.74C630.275 239.043 630.848 240.294 631.837 241.232ZM571.548 214.334L607.523 270.111C607.107 270.424 606.69 270.841 606.43 271.258L539.217 246.497C539.321 246.132 539.373 245.767 539.373 245.455C539.373 244.412 539.008 243.369 538.332 242.535L566.914 213.239C568.06 214.386 569.778 214.908 571.548 214.334ZM652.662 293.204L644.176 289.086L614.864 274.907C614.968 274.542 614.968 274.229 614.968 273.917C614.968 272.457 614.292 271.049 613.146 270.163L632.774 241.858C633.711 242.327 634.7 242.535 635.689 242.327L654.068 291.744C653.547 292.161 653.078 292.631 652.662 293.204ZM572.068 205.524C571.496 205.264 570.923 205.107 570.35 205.055L574.203 164.135C576.546 163.822 578.316 161.841 578.316 159.495L618.352 146.724C618.561 147.193 618.873 147.61 619.238 147.975L572.068 205.524ZM608.252 278.191C608.929 278.504 609.606 278.66 610.283 278.66C612.105 278.66 613.719 277.618 614.5 276.002L652.141 294.246C651.985 294.716 651.881 295.237 651.881 295.758C651.881 296.384 651.985 297.009 652.245 297.583L613.302 319.894L573.839 342.517C573.578 342.152 573.214 341.839 572.849 341.527L608.252 278.191ZM656.619 291.067C656.254 291.067 655.89 291.119 655.525 291.223L637.147 241.91C638.188 241.389 638.969 240.45 639.386 239.356L699.779 252.127C699.779 252.231 699.779 252.336 699.779 252.44C699.779 253.326 700.039 254.16 700.508 254.942L659.482 292.109C658.649 291.432 657.66 291.067 656.619 291.067ZM636.47 233.204C634.284 232.475 632.045 233.465 630.952 235.342L574.567 211.415C574.724 210.894 574.828 210.372 574.828 209.851C574.828 209.486 574.776 209.121 574.672 208.861L656.671 183.996C657.087 184.934 657.712 185.716 658.597 186.237L636.47 233.204ZM525.368 189.156L565.508 208.652C565.404 209.069 565.352 209.434 565.352 209.851C565.352 210.737 565.613 211.571 566.081 212.353L537.394 241.754C536.561 241.128 535.572 240.763 534.531 240.763C534.375 240.763 534.219 240.763 534.062 240.815L522.973 191.137C524.014 190.72 524.847 190.042 525.368 189.156ZM469.608 296.28L478.563 273.5C479.032 273.552 479.448 273.552 479.813 273.395L495.9 297.843L496.733 299.094C495.9 299.772 495.38 300.71 495.171 301.753L472.055 300.085C472.003 298.573 471.066 297.061 469.608 296.28ZM541.612 286.896C541.612 286.688 541.612 286.479 541.559 286.271L605.649 274.803C605.857 275.897 606.378 276.888 607.263 277.618L571.86 341.058C570.715 340.588 569.465 340.588 568.32 341.058L539.841 290.65C540.935 289.659 541.612 288.304 541.612 286.896ZM700.091 250.876L639.698 238.105C639.698 238 639.698 237.844 639.698 237.688C639.698 236.697 639.386 235.811 638.813 234.977L671.249 205.629C672.602 206.776 674.529 207.14 676.247 206.359L701.549 248.634C700.924 249.26 700.404 249.99 700.091 250.876ZM573.006 164.187L569.153 205.212C567.799 205.472 566.602 206.359 565.977 207.557L525.888 188.114C526.045 187.592 526.149 187.123 526.149 186.602C526.149 186.081 526.045 185.507 525.888 185.038L570.246 162.832C570.975 163.561 571.964 164.03 573.006 164.187ZM449.72 269.069L459.404 270.111L465.652 296.019C465.495 296.071 465.287 296.175 465.131 296.28L447.325 271.623C448.367 270.997 449.2 270.111 449.72 269.069ZM669.687 202.084C669.687 203.074 669.999 203.961 670.572 204.795L638.084 234.143C637.928 233.986 637.72 233.882 637.512 233.726L659.691 186.654C660.992 187.071 662.242 186.863 663.335 186.237L671.301 198.487C670.259 199.373 669.687 200.677 669.687 202.084ZM658.285 178.261L626.422 147.61C627.047 146.776 627.359 145.838 627.359 144.795C627.359 144.587 627.359 144.43 627.307 144.222L627.568 144.17C628.713 145.786 630.535 146.724 632.514 146.724C633.659 146.724 634.804 146.411 635.742 145.786C637.095 146.568 638.813 146.672 640.219 145.89L658.441 178.157C658.389 178.209 658.337 178.261 658.285 178.261ZM626.474 140.677C626.474 141.303 626.578 141.876 626.787 142.449C625.954 140.99 624.392 140.052 622.674 140.052C621.841 140.052 621.008 140.26 620.227 140.729L603.567 119.461C603.671 119.357 603.723 119.305 603.827 119.2L629.077 135.725C627.463 136.82 626.474 138.696 626.474 140.677ZM602.681 120.191L619.29 141.459C618.561 142.189 618.144 143.127 617.988 144.118L581.544 143.492C581.492 142.71 581.179 141.98 580.711 141.355L597.735 120.139C599.245 121.077 601.172 121.077 602.681 120.191ZM454.51 226.845C454.51 225.75 454.146 224.655 453.417 223.821L472.159 205.003C472.94 205.577 473.773 205.941 474.71 205.994L478.147 267.765C477.938 267.818 477.782 267.87 477.626 267.974L452.74 230.546C453.885 229.66 454.51 228.304 454.51 226.845ZM476.064 270.632L460.393 268.964L451.334 231.38C451.49 231.328 451.647 231.276 451.803 231.171L476.793 268.756C476.272 269.277 476.064 269.903 476.064 270.632ZM450.137 267.87C450.241 267.401 450.345 266.931 450.345 266.462C450.345 263.699 448.471 261.249 445.815 260.624L450.033 231.641C450.085 231.641 450.137 231.641 450.189 231.641L459.196 268.86L450.137 267.87ZM471.951 301.336L495.067 303.004C495.223 305.506 497.254 307.487 499.805 307.487C500.065 307.487 500.326 307.435 500.638 307.383L513.289 347.991C513.029 348.095 512.769 348.251 512.508 348.46L470.962 303.473C471.483 302.848 471.795 302.17 471.951 301.336ZM504.543 302.743C504.543 302.326 504.491 301.857 504.334 301.388L532.657 288.982C533.125 289.92 533.854 290.65 534.739 291.119L516.153 347.678C515.84 347.626 515.528 347.574 515.268 347.574C515.007 347.574 514.747 347.626 514.435 347.678L501.783 307.07C503.449 306.288 504.543 304.62 504.543 302.743ZM535.885 291.484C536.249 291.588 536.561 291.64 536.926 291.64C537.603 291.64 538.279 291.484 538.904 291.171L567.331 341.579C566.133 342.465 565.404 343.872 565.404 345.384L519.849 351.17C519.485 349.815 518.548 348.668 517.298 348.095L535.885 291.484ZM574.828 345.436C574.828 345.384 574.828 345.384 574.828 345.332C574.828 344.706 574.724 344.133 574.463 343.508L652.87 298.625C653.599 299.564 654.64 300.241 655.838 300.45L653.235 353.047C651.256 353.203 649.59 354.559 649.018 356.487L574.828 345.436ZM703.476 191.293C703.528 190.929 703.58 190.616 703.58 190.303C703.58 186.967 700.872 184.256 697.54 184.256C694.208 184.256 691.501 186.967 691.501 190.303C691.501 192.023 692.23 193.639 693.479 194.786L678.641 199.947C677.861 198.331 676.195 197.34 674.424 197.34C673.695 197.34 673.019 197.497 672.342 197.809L664.324 185.507C665.209 184.673 665.73 183.526 665.782 182.327L712.378 180.138L717.064 186.602L703.476 191.293ZM579.878 140.521C579.149 139.999 578.264 139.687 577.379 139.687C575.661 139.687 574.099 140.781 573.474 142.449L554.263 138.071L596.694 119.305C596.746 119.357 596.746 119.409 596.798 119.409L579.878 140.521ZM521.411 191.346C521.567 191.346 521.723 191.346 521.88 191.293L532.969 240.972C532.292 241.232 531.667 241.597 531.147 242.171L479.188 203.596C479.604 202.866 479.813 202.084 479.813 201.25C479.813 200.989 479.761 200.677 479.709 200.416L517.142 188.531C517.923 190.251 519.589 191.346 521.411 191.346ZM593.31 387.087C592.789 387.087 592.269 387.191 591.748 387.347L572.745 349.294C573.682 348.668 574.359 347.73 574.672 346.635L648.861 357.634C648.861 357.686 648.861 357.686 648.861 357.739C648.861 358.364 648.966 358.937 649.226 359.511L597.111 388.963C596.174 387.816 594.768 387.087 593.31 387.087ZM702.643 248.113L677.34 205.837C677.965 205.368 678.433 204.69 678.746 203.961L734.141 219.912C734.453 220.485 734.817 220.954 735.182 221.371C735.703 221.893 736.327 222.31 737.056 222.622C737.212 223.144 737.369 223.561 737.629 223.978L707.745 248.947C706.86 248.113 705.714 247.644 704.517 247.644C703.892 247.696 703.267 247.8 702.643 248.113ZM665.678 181.129C665.574 180.711 665.47 180.294 665.261 179.93L697.02 158.87L711.597 178.939L665.678 181.129ZM604.712 114.665C604.087 112.736 602.265 111.381 600.235 111.381C598.568 111.381 597.007 112.319 596.174 113.779L587.063 107.054C587.375 106.481 587.635 105.908 587.791 105.334L612.105 113.258L604.712 114.665ZM516.777 187.436L479.344 199.321C478.563 197.653 476.897 196.558 475.075 196.558C474.45 196.558 473.825 196.715 473.201 196.975L459.039 172.997L464.506 165.49L516.882 185.455C516.777 185.872 516.725 186.237 516.725 186.602C516.725 186.863 516.725 187.175 516.777 187.436ZM470.858 199.217L470.65 199.738C470.441 200.26 470.389 200.781 470.389 201.302C470.389 202.345 470.754 203.335 471.378 204.221L452.584 223.04C452.115 222.675 451.594 222.414 451.022 222.31L454.354 179.513L458.311 174.091L472.211 197.601C471.639 198.018 471.17 198.591 470.858 199.217ZM449.772 222.153C448.835 222.153 447.95 222.414 447.169 222.987L446.753 223.352C446.492 223.613 446.232 223.874 445.972 224.186L433.268 217.305C434.257 214.96 433.737 212.197 431.915 210.425L452.948 181.441L449.772 222.153ZM431.498 314.576L463.205 302.639C463.829 303.786 464.871 304.672 466.12 304.985L468.463 348.877C465.912 349.659 464.194 352.004 464.194 354.663C464.194 356.904 465.443 358.937 467.422 359.98L464.819 369.311C464.35 369.207 463.933 369.155 463.569 369.155C463.309 369.155 463.1 369.155 462.84 369.207L430.197 324.22C430.665 323.96 431.03 323.647 431.342 323.334C433.737 320.936 433.789 317.079 431.498 314.576ZM569.726 350.076C570.402 350.128 571.027 350.076 571.652 349.815L590.655 387.869C589.301 388.755 588.52 390.214 588.52 391.778C588.52 392.664 588.781 393.551 589.249 394.28L557.074 420.866C556.606 420.397 555.981 420.032 555.356 419.823L569.726 350.076ZM658.233 358.051C658.233 357.947 658.233 357.843 658.233 357.791C658.233 357.478 658.181 357.113 658.077 356.748L732.371 329.433L705.142 366.913L684.785 363.108L658.233 358.051ZM704.413 367.903L683.223 397.095C682.234 396.522 681.14 396.209 679.995 396.209C679.11 396.209 678.225 396.418 677.392 396.782L657.035 360.918C657.452 360.449 657.816 359.824 658.025 359.198L704.413 367.903ZM733.568 324.533L661.2 296.905C661.304 296.488 661.357 296.123 661.357 295.81C661.357 294.872 661.044 293.934 660.471 293.1L701.445 256.037C702.643 257.079 704.361 257.444 705.923 256.975L732.527 316.453L734.037 319.894C734.193 320.728 734.557 321.509 735.078 322.239L735.286 322.708C734.557 323.178 733.984 323.803 733.568 324.533ZM736.588 211.363L718.99 187.123L726.123 184.621C727.164 185.559 728.518 186.081 729.924 186.081C730.236 186.081 730.6 186.029 730.913 185.976L738.097 210.789C737.577 210.894 737.056 211.102 736.588 211.363ZM662.554 177.636C661.617 177.323 660.471 177.271 659.482 177.636L641.156 145.212C642.197 144.326 642.77 143.023 642.77 141.668C642.77 140.677 642.458 139.739 641.885 138.905L657.296 127.906L672.082 132.702C671.873 134.63 672.498 136.559 673.852 137.914C674.372 138.436 674.997 138.905 675.726 139.218L662.554 177.636ZM492.308 135.881L503.033 136.924L519.329 182.38C518.443 182.797 517.767 183.526 517.298 184.36L465.235 164.5L482.936 140.052C485.383 141.511 488.611 141.094 490.642 139.061C491.475 138.227 492.1 137.132 492.308 135.881ZM454.51 177.115L455.135 169.4C455.239 169.4 455.395 169.4 455.499 169.348L457.582 172.892L454.51 177.115ZM456.749 169.139C458.987 168.461 460.653 166.533 460.966 164.135L463.309 165.021L458.363 171.798L456.749 169.139ZM432.696 218.4L445.399 225.281C445.347 225.385 445.347 225.49 445.295 225.594L445.191 226.115V226.167C445.139 226.376 445.139 226.584 445.139 226.845C445.139 227.47 445.243 228.044 445.503 228.617L445.763 229.138C446.44 230.337 447.534 231.119 448.783 231.432L444.566 260.363C444.097 260.311 443.629 260.363 443.056 260.52L430.04 220.589C430.769 220.277 431.394 219.86 431.967 219.286C432.175 219.078 432.435 218.765 432.696 218.4ZM442.952 272.353C443.421 272.457 443.837 272.509 444.254 272.509C444.878 272.509 445.555 272.405 446.18 272.196L464.09 297.009C463.673 297.426 463.309 297.895 463.048 298.469L462.84 298.99C462.684 299.511 462.58 299.981 462.58 300.45C462.58 300.815 462.632 301.18 462.736 301.544L430.405 313.742C430.04 313.482 429.728 313.325 429.364 313.169L442.952 272.353ZM507.875 406.947L535.416 417.738L506.261 408.251C506.885 407.938 507.458 407.521 507.875 406.947ZM508.916 403.976C508.916 402.1 507.771 400.431 506.105 399.65L514.851 357.009C514.955 357.009 515.111 357.009 515.216 357.009C515.788 357.009 516.361 356.904 516.934 356.696L551.139 420.449C550.566 420.866 550.046 421.387 549.733 422.065L508.499 405.905C508.812 405.331 508.916 404.654 508.916 403.976ZM519.953 352.317L565.508 346.531C565.925 348.043 567.07 349.294 568.58 349.815L554.263 419.615C553.586 419.51 552.857 419.667 552.18 419.927L517.975 356.175C519.224 355.288 519.953 353.881 519.953 352.317ZM691.657 139.53L684.525 134.839C684.577 134.63 684.577 134.474 684.629 134.265L691.657 139.53ZM664.584 178.991C664.324 178.678 664.012 178.418 663.647 178.157L676.923 139.635C678.798 140.104 680.724 139.687 682.234 138.54L696.343 157.984L664.584 178.991ZM672.394 131.555L658.597 127.072L665.105 122.432C665.99 123.006 667.136 123.006 668.073 122.537L673.8 129.209C673.175 129.834 672.706 130.616 672.394 131.555ZM641.364 114.352C643.499 114.352 645.477 113.206 646.519 111.381L663.751 119.252C663.699 119.461 663.699 119.669 663.699 119.878C663.699 120.504 663.908 121.077 664.272 121.598L657.244 126.603L616.947 113.518L635.533 109.922C636.262 112.528 638.657 114.352 641.364 114.352ZM503.866 135.777L503.658 135.204C503.866 135.204 504.074 135.256 504.282 135.256C506.729 135.256 508.916 133.744 509.853 131.503L523.494 137.758L503.866 135.777ZM463.985 164.083L460.966 162.936C460.862 161.789 460.497 160.694 459.768 159.808L481.843 139.478L463.985 164.083ZM578.628 433.585L569.621 430.197L578.576 433.116C578.628 433.272 578.628 433.429 578.628 433.585ZM590.03 395.271C590.915 396.105 592.061 396.574 593.258 396.574C595.341 396.574 597.163 395.219 597.735 393.238L673.695 402.934C673.695 403.246 673.748 403.507 673.8 403.82L634.648 416.487L558.48 423.368C558.376 422.794 558.168 422.325 557.855 421.856L590.03 395.271ZM597.996 392.039C597.996 391.987 597.996 391.882 597.996 391.778C597.996 391.153 597.892 390.579 597.631 390.006L649.746 360.553C650.632 361.752 652.037 362.482 653.547 362.482C654.484 362.482 655.369 362.222 656.15 361.7L676.455 397.356C676.09 397.617 675.83 397.825 675.622 398.034C674.633 399.024 674.008 400.327 673.852 401.735L597.996 392.039ZM711.025 373.064L684.316 397.721L705.766 368.112L709.827 368.842C709.827 368.998 709.775 369.207 709.775 369.415C709.775 370.771 710.192 372.022 711.025 373.064ZM734.089 317.131L706.964 256.454C707.641 256.037 708.213 255.463 708.63 254.733L724.978 261.406C725.342 264.429 727.893 266.775 730.965 266.775C732.318 266.775 733.672 266.306 734.765 265.42L739.607 267.401V312.335C738.15 312.491 736.744 313.117 735.755 314.159C734.922 314.941 734.349 315.984 734.089 317.131ZM737.004 260.728C737.004 257.392 734.297 254.681 730.965 254.681C727.841 254.681 725.29 257.027 724.978 260.155L709.098 253.639C709.202 253.222 709.255 252.805 709.255 252.44C709.255 251.554 708.994 250.667 708.474 249.885L738.358 224.916C738.722 225.229 739.139 225.542 739.555 225.75V266.097L735.598 264.481C736.536 263.387 737.004 262.083 737.004 260.728ZM724.457 178.366L713.055 178.887L698.009 158.192L705.506 153.188C706.131 153.866 706.964 154.23 707.901 154.23C708.422 154.23 708.942 154.126 709.411 153.866L725.967 175.968C725.29 176.645 724.769 177.48 724.457 178.366ZM468.984 377.756C469.348 376.922 469.556 376.088 469.556 375.201C469.556 372.804 468.151 370.666 465.964 369.676L468.515 360.397C469.088 360.553 469.608 360.658 470.181 360.658C473.357 360.658 475.96 358.26 476.168 355.08L511.259 354.819C511.831 355.706 512.664 356.383 513.706 356.748L505.011 399.337C504.751 399.285 504.491 399.285 504.23 399.285C502.148 399.285 500.273 400.692 499.701 402.725L499.545 403.351C499.492 403.559 499.492 403.768 499.492 404.028C499.492 404.393 499.545 404.81 499.701 405.279L499.857 405.853C499.909 406.009 499.961 406.166 500.065 406.27L493.037 403.976C493.297 401.995 492.672 400.014 491.267 398.607C489.184 396.522 485.956 396.157 483.457 397.721L468.984 377.756ZM740.857 267.87L745.074 269.59C744.657 270.424 744.449 271.31 744.449 272.196C744.449 274.594 745.855 276.731 748.042 277.722L740.857 310.093V267.87ZM740.857 266.619V226.115C741.221 226.167 741.534 226.219 741.846 226.167L748.77 266.41C747.521 266.775 746.48 267.557 745.699 268.547L740.857 266.619ZM749.864 266.097L742.991 225.959C744.97 225.333 746.323 223.561 746.323 221.424C746.323 221.111 746.271 220.798 746.219 220.485V220.381L745.334 219.599C746.48 217.149 746.011 214.282 744.137 212.405C743.616 211.884 743.043 211.467 742.315 211.154L748.927 190.407C749.239 190.459 749.499 190.512 749.812 190.564L749.864 266.097ZM674.737 128.375L670.832 123.84L675.934 127.697C675.518 127.854 675.101 128.114 674.737 128.375ZM586.073 108.306C586.177 108.253 586.23 108.149 586.282 108.045L595.653 114.978C595.549 115.395 595.497 115.76 595.497 116.125C595.497 116.855 595.653 117.584 596.017 118.21L552.232 137.549L551.868 137.445C550.775 135.621 548.848 134.578 546.766 134.578C545.62 134.578 544.475 134.891 543.486 135.516L510.113 127.906C510.061 127.801 510.061 127.645 510.009 127.541L575.713 106.168C576.025 106.95 576.494 107.68 577.066 108.253C579.618 110.756 583.626 110.756 586.073 108.306ZM426.656 254.212L439.047 263.387C438.475 264.325 438.214 265.368 438.214 266.462C438.214 268.86 439.62 270.997 441.755 271.988L428.218 312.804C427.698 312.7 427.229 312.648 426.76 312.648C426.708 312.648 426.656 312.648 426.656 312.648V254.212ZM580.451 428.841C579.618 429.675 579.045 430.718 578.785 431.813L558.532 425.244C558.584 424.984 558.636 424.723 558.636 424.515L629.65 418.155L590.707 430.822C590.395 430.092 589.926 429.415 589.405 428.893C588.208 427.694 586.646 427.017 584.928 427.017C583.21 427.017 581.648 427.642 580.451 428.841ZM640.219 416.018L674.216 404.967C674.372 405.331 674.528 405.644 674.737 405.957L668.177 410.805C667.031 409.502 665.417 408.824 663.699 408.824C660.524 408.824 657.868 411.326 657.66 414.506L640.219 416.018ZM710.035 367.747L706.547 367.069L733.88 329.433C734.193 329.902 734.609 330.319 735.026 330.632L717.637 363.733C717.012 363.525 716.439 363.42 715.815 363.42C713.159 363.42 710.816 365.193 710.035 367.747ZM737.264 331.466C737.421 331.466 737.577 331.518 737.785 331.518C738.722 331.518 739.607 331.205 740.44 330.684L740.492 330.632L740.544 330.528C741.117 329.172 741.69 327.713 742.367 325.94L742.419 325.836V325.732C742.367 325.367 742.21 325.002 742.002 324.637C743.043 324.324 743.981 323.803 744.762 323.073C746.688 321.145 747.156 318.33 745.959 315.88L764.389 301.909C764.65 302.17 764.962 302.431 765.274 302.587L721.229 389.172C721.177 389.172 721.125 389.12 721.073 389.12L737.264 331.466ZM762.046 296.801C762.046 298.312 762.567 299.772 763.504 301.023L745.282 314.837C745.074 314.576 744.918 314.368 744.709 314.159C743.876 313.325 742.783 312.752 741.534 312.491L749.135 278.139C749.603 278.243 750.072 278.295 750.488 278.295C751.582 278.295 752.675 277.983 753.612 277.409L764.389 291.64C762.879 292.943 762.046 294.82 762.046 296.801ZM741.169 210.737C740.701 210.633 740.232 210.581 739.711 210.581C739.607 210.581 739.451 210.581 739.347 210.581L732.11 185.612C734.297 184.725 735.755 182.588 735.755 180.242C735.755 177.01 733.151 174.404 729.924 174.404C728.882 174.404 727.841 174.665 726.904 175.238L711.285 154.387L744.553 179.93C743.824 181.076 743.46 182.327 743.46 183.631C743.46 186.393 745.178 188.948 747.729 190.042L741.169 210.737ZM743.408 177.427L710.869 152.458C711.129 151.989 711.233 151.468 711.233 150.946C711.233 148.965 709.515 147.35 707.432 147.662L675.414 109.4L743.408 177.427ZM705.662 148.496L684.629 132.649C684.42 131.242 683.848 129.991 682.859 129C681.453 127.593 679.422 126.915 677.444 127.228L669.322 121.129C669.53 120.712 669.582 120.295 669.582 119.878C669.582 118.679 668.854 117.636 667.76 117.167L668.906 111.12C669.426 111.225 669.895 111.277 670.363 111.277C671.769 111.277 673.175 110.86 674.32 110.026L706.183 148.079C706.027 148.184 705.818 148.34 705.662 148.496ZM666.563 116.907C665.886 116.907 665.209 117.167 664.689 117.636L662.45 115.916L664.272 118.054L647.039 110.182C647.247 109.557 647.352 108.879 647.352 108.253C647.352 107.889 647.3 107.524 647.247 107.107L663.543 105.543C663.96 107.836 665.522 109.817 667.708 110.703L666.563 116.907ZM663.387 104.344L646.883 105.908C645.946 103.666 643.759 102.207 641.364 102.207C638.032 102.207 635.325 104.917 635.325 108.253C635.325 108.41 635.325 108.566 635.377 108.723L614.656 112.736L587.948 104.031C588 102.259 587.375 100.538 586.125 99.3395C583.678 96.8895 579.67 96.8895 577.171 99.3395C577.119 99.4438 577.014 99.4959 576.962 99.6002L563.426 89.5916C563.634 89.0182 563.79 88.4448 563.895 87.8713L663.491 103.666C663.439 103.875 663.387 104.083 663.387 104.344C663.387 104.344 663.387 104.292 663.387 104.344ZM575.452 105.021L509.645 126.446C508.604 124.465 506.521 123.162 504.282 123.162C500.95 123.162 498.243 125.873 498.243 129.209C498.243 129.522 498.243 129.782 498.295 130.095L491.943 132.18C491.631 131.398 491.162 130.773 490.59 130.199C489.392 129 487.83 128.323 486.112 128.323C484.446 128.323 482.832 129 481.635 130.199C480.333 131.503 479.656 133.327 479.813 135.152L464.454 137.914C464.298 137.237 463.985 136.611 463.673 136.09L551.451 91.3118C552.753 93.032 554.836 94.0225 556.97 94.0225C559.365 94.0225 561.552 92.7714 562.853 90.7384L576.233 100.591C575.4 101.894 575.14 103.51 575.452 105.021ZM423.845 220.068C424.313 220.381 424.834 220.642 425.407 220.85V251.762L412.964 242.588C413.641 241.493 414.005 240.242 414.005 238.991C414.005 237.166 413.276 235.446 411.975 234.091L423.845 220.068ZM426.812 325.211C427.541 325.211 428.322 325.054 428.999 324.846L461.434 369.572C460.237 369.989 459.196 370.823 458.467 371.865L429.884 351.327C430.457 350.284 430.717 349.137 430.717 347.991C430.717 344.654 428.426 341.839 425.199 341.162L426.812 325.211ZM429.259 352.317L457.946 372.96C457.634 373.69 457.478 374.472 457.478 375.201C457.478 378.538 460.185 381.248 463.517 381.248C465.391 381.248 467.161 380.362 468.307 378.903L482.468 398.451C482.416 398.503 482.364 398.555 482.312 398.607C481.114 399.806 480.437 401.422 480.437 403.09C480.437 404.758 481.114 406.374 482.312 407.573C484.238 409.502 487.206 409.971 489.653 408.72L500.117 425.036C500.013 425.14 499.857 425.244 499.753 425.401L428.062 353.516C428.478 353.203 428.895 352.786 429.259 352.317ZM491.267 407.573C491.943 406.895 492.412 406.113 492.724 405.175L502.096 408.199C502.564 408.459 503.033 408.616 503.501 408.668L549.265 423.576C549.213 423.837 549.161 424.098 549.161 424.358C549.161 424.463 549.161 424.567 549.161 424.723L511.779 429.363C511.415 425.818 508.447 423.107 504.855 423.107C503.501 423.107 502.2 423.524 501.054 424.254L490.642 408.042C490.902 407.886 491.058 407.729 491.267 407.573ZM511.831 430.614L549.421 425.922C549.837 427.121 550.723 428.111 551.92 428.633L552.493 428.789C552.961 428.893 553.43 428.998 553.898 429.102H553.95C555.512 429.102 556.918 428.32 557.751 427.069L578.837 435.045C579.149 436.139 579.67 437.077 580.398 437.859C582.533 439.997 585.865 440.309 588.364 438.641L611.116 447.242C611.064 447.347 611.064 447.451 611.012 447.555L511.571 431.813C511.727 431.343 511.779 430.979 511.831 430.614ZM591.071 432.021L635.221 417.686L657.764 415.653C657.868 416.435 658.129 417.217 658.493 417.894L622.622 444.011C621.32 442.759 619.654 442.082 617.832 442.082C615.385 442.082 613.094 443.385 611.845 445.522L590.811 435.514C591.228 434.367 591.332 433.168 591.071 432.021ZM659.222 418.833C660.367 420.136 661.981 420.866 663.699 420.866C667.031 420.866 669.739 418.155 669.739 414.819C669.739 413.724 669.426 412.682 668.906 411.795L675.518 406.947L675.57 407C676.767 408.199 678.329 408.876 680.047 408.876C681.713 408.876 683.327 408.199 684.525 407C685.826 405.696 686.503 403.924 686.347 402.047L712.014 398.086C712.17 398.555 712.378 398.972 712.639 399.389L623.455 444.897L659.222 418.833ZM721.854 369.467C721.854 367.278 720.656 365.245 718.73 364.202L735.963 331.466L719.823 388.859C719.407 388.755 718.99 388.755 718.522 388.755C718.47 388.755 718.47 388.755 718.418 388.755L717.012 375.462C719.875 374.784 721.854 372.334 721.854 369.467ZM756.528 272.196C756.528 269.903 755.226 267.818 753.196 266.775L753.456 266.358V266.045C753.456 265.889 753.456 265.732 753.456 265.576C753.456 265.42 753.456 265.263 753.456 265.159V263.96L752.102 266.358C751.79 266.254 751.478 266.202 751.165 266.149V190.564C751.374 190.564 751.53 190.512 751.738 190.512L767.409 289.972C766.732 290.128 766.055 290.441 765.379 290.858L754.601 276.575C755.799 275.428 756.528 273.864 756.528 272.196Z" fill="#141414"/>
<path id="logo" fill-rule="evenodd" clip-rule="evenodd" d="M74.3756 133.301C60.1847 116.888 60.8733 92.044 76.4587 76.4587C92.0412 60.8761 116.888 60.1932 133.301 74.3762L74.3756 133.301ZM128.96 78.717C114.948 66.9579 93.9597 67.6039 80.7818 80.7818C67.5847 93.9789 66.8995 114.953 78.7122 128.965L128.96 78.717ZM135.541 135.541C119.953 151.13 95.111 151.824 78.6981 137.625L69.2185 147.105C68.0247 148.298 66.0891 148.298 64.8953 147.105C63.7016 145.911 63.7016 143.975 64.8953 142.782L142.782 64.8953C143.975 63.7016 145.911 63.7016 147.105 64.8953C148.298 66.0891 148.298 68.0247 147.105 69.2185L137.625 78.6981C151.824 95.111 151.13 119.953 135.541 135.541Z" fill="url(#paint0_linear)"/>
<g id="Group 178">
<g id="1998537634">
<path d="M323.651 324.972C323.651 328.019 323.155 330.285 322.161 331.771C321.168 333.257 319.722 334 317.826 334C315.929 334 314.484 333.257 313.49 331.771C312.497 330.285 312 328.019 312 324.972C312 321.963 312.506 319.715 313.517 318.229C314.529 316.743 315.965 316 317.826 316C319.722 316 321.168 316.743 322.161 318.229C323.155 319.697 323.651 321.944 323.651 324.972ZM320.644 324.972C320.644 323.003 320.4 321.508 319.912 320.486C319.442 319.446 318.747 318.926 317.826 318.926C316.922 318.926 316.227 319.446 315.739 320.486C315.252 321.508 315.008 323.003 315.008 324.972C315.008 326.96 315.252 328.474 315.739 329.514C316.227 330.536 316.922 331.046 317.826 331.046C318.747 331.046 319.442 330.536 319.912 329.514C320.4 328.474 320.644 326.96 320.644 324.972ZM319.343 324.693C319.343 325.195 319.199 325.632 318.91 326.003C318.639 326.356 318.286 326.533 317.853 326.533C317.383 326.533 317.013 326.356 316.742 326.003C316.471 325.632 316.335 325.195 316.335 324.693C316.335 324.192 316.471 323.755 316.742 323.384C317.013 323.012 317.383 322.827 317.853 322.827C318.286 322.827 318.639 323.012 318.91 323.384C319.199 323.755 319.343 324.192 319.343 324.693Z" fill="#6A6A6A"/>
<path d="M342.619 324.972C342.619 328.019 342.122 330.285 341.129 331.771C340.135 333.257 338.69 334 336.793 334C334.896 334 333.451 333.257 332.458 331.771C331.464 330.285 330.967 328.019 330.967 324.972C330.967 321.963 331.473 319.715 332.485 318.229C333.496 316.743 334.933 316 336.793 316C338.69 316 340.135 316.743 341.129 318.229C342.122 319.697 342.619 321.944 342.619 324.972ZM339.611 324.972C339.611 323.003 339.367 321.508 338.88 320.486C338.41 319.446 337.714 318.926 336.793 318.926C335.89 318.926 335.194 319.446 334.707 320.486C334.219 321.508 333.975 323.003 333.975 324.972C333.975 326.96 334.219 328.474 334.707 329.514C335.194 330.536 335.89 331.046 336.793 331.046C337.714 331.046 338.41 330.536 338.88 329.514C339.367 328.474 339.611 326.96 339.611 324.972ZM338.311 324.693C338.311 325.195 338.166 325.632 337.877 326.003C337.606 326.356 337.254 326.533 336.82 326.533C336.351 326.533 335.98 326.356 335.709 326.003C335.438 325.632 335.303 325.195 335.303 324.693C335.303 324.192 335.438 323.755 335.709 323.384C335.98 323.012 336.351 322.827 336.82 322.827C337.254 322.827 337.606 323.012 337.877 323.384C338.166 323.755 338.311 324.192 338.311 324.693Z" fill="#6A6A6A"/>
<path d="M361.586 324.972C361.586 328.019 361.089 330.285 360.096 331.771C359.102 333.257 357.657 334 355.761 334C353.864 334 352.419 333.257 351.425 331.771C350.432 330.285 349.935 328.019 349.935 324.972C349.935 321.963 350.441 319.715 351.452 318.229C352.464 316.743 353.9 316 355.761 316C357.657 316 359.102 316.743 360.096 318.229C361.089 319.697 361.586 321.944 361.586 324.972ZM358.579 324.972C358.579 323.003 358.335 321.508 357.847 320.486C357.377 319.446 356.682 318.926 355.761 318.926C354.857 318.926 354.162 319.446 353.674 320.486C353.186 321.508 352.943 323.003 352.943 324.972C352.943 326.96 353.186 328.474 353.674 329.514C354.162 330.536 354.857 331.046 355.761 331.046C356.682 331.046 357.377 330.536 357.847 329.514C358.335 328.474 358.579 326.96 358.579 324.972ZM357.278 324.693C357.278 325.195 357.133 325.632 356.844 326.003C356.573 326.356 356.221 326.533 355.788 326.533C355.318 326.533 354.948 326.356 354.677 326.003C354.406 325.632 354.27 325.195 354.27 324.693C354.27 324.192 354.406 323.755 354.677 323.384C354.948 323.012 355.318 322.827 355.788 322.827C356.221 322.827 356.573 323.012 356.844 323.384C357.133 323.755 357.278 324.192 357.278 324.693Z" fill="#6A6A6A"/>
<path d="M373.725 330.796V321.155C373.22 321.526 372.642 321.861 371.991 322.158C371.341 322.437 370.79 322.659 370.338 322.827L369.254 319.985C369.688 319.817 370.158 319.604 370.663 319.344C371.169 319.084 371.675 318.796 372.181 318.48C372.687 318.164 373.165 317.83 373.617 317.477C374.069 317.124 374.457 316.762 374.782 316.39H377.058V330.796H380.391V333.638H370.203V330.796H373.725Z" fill="#6A6A6A"/>
<path d="M392.693 330.796V321.155C392.187 321.526 391.609 321.861 390.959 322.158C390.308 322.437 389.757 322.659 389.306 322.827L388.222 319.985C388.655 319.817 389.125 319.604 389.631 319.344C390.137 319.084 390.642 318.796 391.148 318.48C391.654 318.164 392.133 317.83 392.584 317.477C393.036 317.124 393.424 316.762 393.75 316.39H396.026V330.796H399.358V333.638H389.17V330.796H392.693Z" fill="#6A6A6A"/>
<path d="M411.66 330.796V321.155C411.154 321.526 410.576 321.861 409.926 322.158C409.276 322.437 408.725 322.659 408.273 322.827L407.189 319.985C407.623 319.817 408.093 319.604 408.598 319.344C409.104 319.084 409.61 318.796 410.116 318.48C410.621 318.164 411.1 317.83 411.552 317.477C412.003 317.124 412.392 316.762 412.717 316.39H414.993V330.796H418.326V333.638H408.138V330.796H411.66Z" fill="#6A6A6A"/>
<path d="M437.456 324.972C437.456 328.019 436.959 330.285 435.966 331.771C434.972 333.257 433.527 334 431.63 334C429.733 334 428.288 333.257 427.295 331.771C426.301 330.285 425.804 328.019 425.804 324.972C425.804 321.963 426.31 319.715 427.322 318.229C428.333 316.743 429.77 316 431.63 316C433.527 316 434.972 316.743 435.966 318.229C436.959 319.697 437.456 321.944 437.456 324.972ZM434.448 324.972C434.448 323.003 434.204 321.508 433.717 320.486C433.247 319.446 432.551 318.926 431.63 318.926C430.727 318.926 430.031 319.446 429.544 320.486C429.056 321.508 428.812 323.003 428.812 324.972C428.812 326.96 429.056 328.474 429.544 329.514C430.031 330.536 430.727 331.046 431.63 331.046C432.551 331.046 433.247 330.536 433.717 329.514C434.204 328.474 434.448 326.96 434.448 324.972ZM433.148 324.693C433.148 325.195 433.003 325.632 432.714 326.003C432.443 326.356 432.091 326.533 431.657 326.533C431.188 326.533 430.817 326.356 430.546 326.003C430.275 325.632 430.14 325.195 430.14 324.693C430.14 324.192 430.275 323.755 430.546 323.384C430.817 323.012 431.188 322.827 431.657 322.827C432.091 322.827 432.443 323.012 432.714 323.384C433.003 323.755 433.148 324.192 433.148 324.693Z" fill="#6A6A6A"/>
<path d="M449.595 330.796V321.155C449.089 321.526 448.511 321.861 447.861 322.158C447.211 322.437 446.66 322.659 446.208 322.827L445.124 319.985C445.558 319.817 446.027 319.604 446.533 319.344C447.039 319.084 447.545 318.796 448.051 318.48C448.556 318.164 449.035 317.83 449.487 317.477C449.938 317.124 450.327 316.762 450.652 316.39H452.928V330.796H456.261V333.638H446.073V330.796H449.595Z" fill="#6A6A6A"/>
<path d="M475.391 324.972C475.391 328.019 474.894 330.285 473.9 331.771C472.907 333.257 471.462 334 469.565 334C467.668 334 466.223 333.257 465.23 331.771C464.236 330.285 463.739 328.019 463.739 324.972C463.739 321.963 464.245 319.715 465.257 318.229C466.268 316.743 467.704 316 469.565 316C471.462 316 472.907 316.743 473.9 318.229C474.894 319.697 475.391 321.944 475.391 324.972ZM472.383 324.972C472.383 323.003 472.139 321.508 471.651 320.486C471.182 319.446 470.486 318.926 469.565 318.926C468.662 318.926 467.966 319.446 467.479 320.486C466.991 321.508 466.747 323.003 466.747 324.972C466.747 326.96 466.991 328.474 467.479 329.514C467.966 330.536 468.662 331.046 469.565 331.046C470.486 331.046 471.182 330.536 471.651 329.514C472.139 328.474 472.383 326.96 472.383 324.972ZM471.082 324.693C471.082 325.195 470.938 325.632 470.649 326.003C470.378 326.356 470.026 326.533 469.592 326.533C469.122 326.533 468.752 326.356 468.481 326.003C468.21 325.632 468.075 325.195 468.075 324.693C468.075 324.192 468.21 323.755 468.481 323.384C468.752 323.012 469.122 322.827 469.592 322.827C470.026 322.827 470.378 323.012 470.649 323.384C470.938 323.755 471.082 324.192 471.082 324.693Z" fill="#6A6A6A"/>
<path d="M494.358 324.972C494.358 328.019 493.861 330.285 492.868 331.771C491.874 333.257 490.429 334 488.532 334C486.636 334 485.191 333.257 484.197 331.771C483.203 330.285 482.707 328.019 482.707 324.972C482.707 321.963 483.213 319.715 484.224 318.229C485.236 316.743 486.672 316 488.532 316C490.429 316 491.874 316.743 492.868 318.229C493.861 319.697 494.358 321.944 494.358 324.972ZM491.35 324.972C491.35 323.003 491.107 321.508 490.619 320.486C490.149 319.446 489.454 318.926 488.532 318.926C487.629 318.926 486.934 319.446 486.446 320.486C485.958 321.508 485.714 323.003 485.714 324.972C485.714 326.96 485.958 328.474 486.446 329.514C486.934 330.536 487.629 331.046 488.532 331.046C489.454 331.046 490.149 330.536 490.619 329.514C491.107 328.474 491.35 326.96 491.35 324.972ZM490.05 324.693C490.05 325.195 489.905 325.632 489.616 326.003C489.345 326.356 488.993 326.533 488.56 326.533C488.09 326.533 487.72 326.356 487.449 326.003C487.178 325.632 487.042 325.195 487.042 324.693C487.042 324.192 487.178 323.755 487.449 323.384C487.72 323.012 488.09 322.827 488.56 322.827C488.993 322.827 489.345 323.012 489.616 323.384C489.905 323.755 490.05 324.192 490.05 324.693Z" fill="#6A6A6A"/>
<path d="M506.497 330.796V321.155C505.991 321.526 505.413 321.861 504.763 322.158C504.113 322.437 503.562 322.659 503.11 322.827L502.026 319.985C502.46 319.817 502.93 319.604 503.435 319.344C503.941 319.084 504.447 318.796 504.953 318.48C505.459 318.164 505.937 317.83 506.389 317.477C506.84 317.124 507.229 316.762 507.554 316.39H509.83V330.796H513.163V333.638H502.975V330.796H506.497Z" fill="#6A6A6A"/>
<path d="M532.293 324.972C532.293 328.019 531.796 330.285 530.803 331.771C529.809 333.257 528.364 334 526.467 334C524.57 334 523.125 333.257 522.132 331.771C521.138 330.285 520.642 328.019 520.642 324.972C520.642 321.963 521.147 319.715 522.159 318.229C523.171 316.743 524.607 316 526.467 316C528.364 316 529.809 316.743 530.803 318.229C531.796 319.697 532.293 321.944 532.293 324.972ZM529.285 324.972C529.285 323.003 529.041 321.508 528.554 320.486C528.084 319.446 527.388 318.926 526.467 318.926C525.564 318.926 524.869 319.446 524.381 320.486C523.893 321.508 523.649 323.003 523.649 324.972C523.649 326.96 523.893 328.474 524.381 329.514C524.869 330.536 525.564 331.046 526.467 331.046C527.388 331.046 528.084 330.536 528.554 329.514C529.041 328.474 529.285 326.96 529.285 324.972ZM527.985 324.693C527.985 325.195 527.84 325.632 527.551 326.003C527.28 326.356 526.928 326.533 526.494 326.533C526.025 326.533 525.654 326.356 525.383 326.003C525.112 325.632 524.977 325.195 524.977 324.693C524.977 324.192 525.112 323.755 525.383 323.384C525.654 323.012 526.025 322.827 526.494 322.827C526.928 322.827 527.28 323.012 527.551 323.384C527.84 323.755 527.985 324.192 527.985 324.693Z" fill="#6A6A6A"/>
<path d="M551.26 324.972C551.26 328.019 550.764 330.285 549.77 331.771C548.777 333.257 547.331 334 545.435 334C543.538 334 542.093 333.257 541.099 331.771C540.106 330.285 539.609 328.019 539.609 324.972C539.609 321.963 540.115 319.715 541.126 318.229C542.138 316.743 543.574 316 545.435 316C547.331 316 548.777 316.743 549.77 318.229C550.764 319.697 551.26 321.944 551.26 324.972ZM548.253 324.972C548.253 323.003 548.009 321.508 547.521 320.486C547.051 319.446 546.356 318.926 545.435 318.926C544.531 318.926 543.836 319.446 543.348 320.486C542.86 321.508 542.617 323.003 542.617 324.972C542.617 326.96 542.86 328.474 543.348 329.514C543.836 330.536 544.531 331.046 545.435 331.046C546.356 331.046 547.051 330.536 547.521 329.514C548.009 328.474 548.253 326.96 548.253 324.972ZM546.952 324.693C546.952 325.195 546.808 325.632 546.518 326.003C546.248 326.356 545.895 326.533 545.462 326.533C544.992 326.533 544.622 326.356 544.351 326.003C544.08 325.632 543.944 325.195 543.944 324.693C543.944 324.192 544.08 323.755 544.351 323.384C544.622 323.012 544.992 322.827 545.462 322.827C545.895 322.827 546.248 323.012 546.518 323.384C546.808 323.755 546.952 324.192 546.952 324.693Z" fill="#6A6A6A"/>
<path d="M570.228 324.972C570.228 328.019 569.731 330.285 568.737 331.771C567.744 333.257 566.299 334 564.402 334C562.505 334 561.06 333.257 560.067 331.771C559.073 330.285 558.576 328.019 558.576 324.972C558.576 321.963 559.082 319.715 560.094 318.229C561.105 316.743 562.541 316 564.402 316C566.299 316 567.744 316.743 568.737 318.229C569.731 319.697 570.228 321.944 570.228 324.972ZM567.22 324.972C567.22 323.003 566.976 321.508 566.488 320.486C566.019 319.446 565.323 318.926 564.402 318.926C563.499 318.926 562.803 319.446 562.316 320.486C561.828 321.508 561.584 323.003 561.584 324.972C561.584 326.96 561.828 328.474 562.316 329.514C562.803 330.536 563.499 331.046 564.402 331.046C565.323 331.046 566.019 330.536 566.488 329.514C566.976 328.474 567.22 326.96 567.22 324.972ZM565.919 324.693C565.919 325.195 565.775 325.632 565.486 326.003C565.215 326.356 564.863 326.533 564.429 326.533C563.959 326.533 563.589 326.356 563.318 326.003C563.047 325.632 562.912 325.195 562.912 324.693C562.912 324.192 563.047 323.755 563.318 323.384C563.589 323.012 563.959 322.827 564.429 322.827C564.863 322.827 565.215 323.012 565.486 323.384C565.775 323.755 565.919 324.192 565.919 324.693Z" fill="#6A6A6A"/>
<path d="M589.195 324.972C589.195 328.019 588.698 330.285 587.705 331.771C586.711 333.257 585.266 334 583.369 334C581.473 334 580.028 333.257 579.034 331.771C578.041 330.285 577.544 328.019 577.544 324.972C577.544 321.963 578.05 319.715 579.061 318.229C580.073 316.743 581.509 316 583.369 316C585.266 316 586.711 316.743 587.705 318.229C588.698 319.697 589.195 321.944 589.195 324.972ZM586.187 324.972C586.187 323.003 585.944 321.508 585.456 320.486C584.986 319.446 584.291 318.926 583.369 318.926C582.466 318.926 581.771 319.446 581.283 320.486C580.795 321.508 580.551 323.003 580.551 324.972C580.551 326.96 580.795 328.474 581.283 329.514C581.771 330.536 582.466 331.046 583.369 331.046C584.291 331.046 584.986 330.536 585.456 329.514C585.944 328.474 586.187 326.96 586.187 324.972ZM584.887 324.693C584.887 325.195 584.742 325.632 584.453 326.003C584.182 326.356 583.83 326.533 583.397 326.533C582.927 326.533 582.557 326.356 582.286 326.003C582.015 325.632 581.879 325.195 581.879 324.693C581.879 324.192 582.015 323.755 582.286 323.384C582.557 323.012 582.927 322.827 583.397 322.827C583.83 322.827 584.182 323.012 584.453 323.384C584.742 323.755 584.887 324.192 584.887 324.693Z" fill="#6A6A6A"/>
<path d="M601.334 330.796V321.155C600.828 321.526 600.25 321.861 599.6 322.158C598.95 322.437 598.399 322.659 597.947 322.827L596.863 319.985C597.297 319.817 597.767 319.604 598.272 319.344C598.778 319.084 599.284 318.796 599.79 318.48C600.296 318.164 600.774 317.83 601.226 317.477C601.678 317.124 602.066 316.762 602.391 316.39H604.667V330.796H608V333.638H597.812V330.796H601.334Z" fill="#6A6A6A"/>
</g>
<g id="#HACKATHONHUB">
<path d="M119.065 256.29H125.537L127.378 246.885H134.632L132.791 256.29H136.864V262.653H131.563L130.224 269.458H136.864V275.82H128.997L127.211 285.225H119.958L121.743 275.82H115.271L113.485 285.225H106.232L108.017 275.82H104V269.458H109.245L110.584 262.653H104V256.29H111.811L113.653 246.885H120.906L119.065 256.29ZM116.498 269.458H122.971L124.31 262.653H117.837L116.498 269.458Z" fill="white"/>
<path d="M167.731 246.885H176.435V285.225H167.731V268.96H153.113V285.225H144.408V246.885H153.113V261.546H167.731V246.885Z" fill="white"/>
<path d="M211.273 285.225C210.864 283.898 210.399 282.533 209.878 281.131C209.394 279.73 208.911 278.328 208.427 276.927H193.362C192.879 278.328 192.376 279.73 191.856 281.131C191.372 282.533 190.926 283.898 190.517 285.225H181.478C182.928 281.095 184.305 277.277 185.607 273.773C186.909 270.269 188.173 266.968 189.401 263.87C190.665 260.772 191.893 257.84 193.083 255.073C194.311 252.27 195.575 249.541 196.877 246.885H205.191C206.456 249.541 207.702 252.27 208.929 255.073C210.157 257.84 211.384 260.772 212.612 263.87C213.876 266.968 215.16 270.269 216.462 273.773C217.764 277.277 219.14 281.095 220.591 285.225H211.273ZM200.839 255.571C200.653 256.124 200.374 256.881 200.002 257.84C199.63 258.799 199.202 259.905 198.719 261.159C198.235 262.413 197.696 263.796 197.101 265.308C196.543 266.821 195.966 268.407 195.371 270.066H206.363C205.767 268.407 205.191 266.821 204.633 265.308C204.075 263.796 203.536 262.413 203.015 261.159C202.531 259.905 202.104 258.799 201.732 257.84C201.36 256.881 201.062 256.124 200.839 255.571Z" fill="white"/>
<path d="M241.81 286C235.524 286 230.726 284.266 227.415 280.799C224.142 277.332 222.505 272.408 222.505 266.028C222.505 262.856 223.007 260.034 224.012 257.563C225.016 255.055 226.392 252.953 228.14 251.256C229.889 249.522 231.972 248.213 234.39 247.328C236.807 246.443 239.43 246 242.257 246C243.893 246 245.381 246.129 246.72 246.387C248.06 246.609 249.231 246.885 250.236 247.217C251.24 247.512 252.077 247.826 252.746 248.158C253.416 248.49 253.9 248.748 254.197 248.932L251.686 255.903C250.496 255.276 249.101 254.741 247.502 254.299C245.939 253.856 244.154 253.635 242.145 253.635C240.806 253.635 239.486 253.856 238.184 254.299C236.919 254.741 235.784 255.461 234.78 256.456C233.813 257.415 233.032 258.669 232.437 260.219C231.842 261.768 231.544 263.649 231.544 265.862C231.544 267.632 231.73 269.292 232.102 270.841C232.511 272.353 233.143 273.663 233.999 274.769C234.892 275.876 236.045 276.761 237.458 277.425C238.872 278.052 240.583 278.365 242.592 278.365C243.856 278.365 244.991 278.291 245.995 278.144C246.999 277.996 247.892 277.83 248.673 277.646C249.454 277.425 250.143 277.185 250.738 276.927C251.333 276.669 251.872 276.429 252.356 276.207L254.755 283.123C253.528 283.861 251.798 284.525 249.566 285.115C247.334 285.705 244.749 286 241.81 286Z" fill="white"/>
<path d="M283.18 285.225C282.398 283.971 281.468 282.625 280.39 281.187C279.348 279.711 278.195 278.254 276.93 276.816C275.703 275.341 274.42 273.939 273.08 272.611C271.741 271.247 270.402 270.048 269.063 269.015V285.225H260.359V246.885H269.063V261.38C271.332 259.02 273.601 256.567 275.87 254.022C278.176 251.44 280.315 249.061 282.287 246.885H292.609C289.968 249.983 287.308 252.971 284.63 255.848C281.989 258.725 279.199 261.62 276.261 264.534C279.348 267.079 282.324 270.103 285.188 273.607C288.09 277.111 290.861 280.984 293.502 285.225H283.18Z" fill="white"/>
<path d="M325.807 285.225C325.397 283.898 324.933 282.533 324.412 281.131C323.928 279.73 323.445 278.328 322.961 276.927H307.896C307.413 278.328 306.91 279.73 306.39 281.131C305.906 282.533 305.46 283.898 305.051 285.225H296.012C297.462 281.095 298.839 277.277 300.141 273.773C301.442 270.269 302.707 266.968 303.935 263.87C305.199 260.772 306.427 257.84 307.617 255.073C308.845 252.27 310.109 249.541 311.411 246.885H319.725C320.99 249.541 322.236 252.27 323.463 255.073C324.691 257.84 325.918 260.772 327.146 263.87C328.41 266.968 329.694 270.269 330.996 273.773C332.298 277.277 333.674 281.095 335.125 285.225H325.807ZM315.373 255.571C315.187 256.124 314.908 256.881 314.536 257.84C314.164 258.799 313.736 259.905 313.253 261.159C312.769 262.413 312.23 263.796 311.635 265.308C311.077 266.821 310.5 268.407 309.905 270.066H320.897C320.301 268.407 319.725 266.821 319.167 265.308C318.609 263.796 318.07 262.413 317.549 261.159C317.065 259.905 316.638 258.799 316.266 257.84C315.894 256.881 315.596 256.124 315.373 255.571Z" fill="white"/>
<path d="M364.232 246.885V254.243H352.57V285.225H343.866V254.243H332.205V246.885H364.232Z" fill="white"/>
<path d="M393.148 246.885H401.852V285.225H393.148V268.96H378.53V285.225H369.826V246.885H378.53V261.546H393.148V246.885Z" fill="white"/>
<path d="M418.11 266.028C418.11 267.909 418.333 269.605 418.779 271.118C419.263 272.63 419.933 273.939 420.788 275.046C421.681 276.115 422.76 276.945 424.024 277.535C425.289 278.125 426.74 278.42 428.376 278.42C429.976 278.42 431.408 278.125 432.673 277.535C433.975 276.945 435.053 276.115 435.909 275.046C436.802 273.939 437.471 272.63 437.917 271.118C438.401 269.605 438.643 267.909 438.643 266.028C438.643 264.147 438.401 262.45 437.917 260.938C437.471 259.389 436.802 258.079 435.909 257.01C435.053 255.903 433.975 255.055 432.673 254.465C431.408 253.875 429.976 253.58 428.376 253.58C426.74 253.58 425.289 253.893 424.024 254.52C422.76 255.11 421.681 255.959 420.788 257.065C419.933 258.135 419.263 259.444 418.779 260.993C418.333 262.505 418.11 264.183 418.11 266.028ZM447.626 266.028C447.626 269.31 447.124 272.206 446.119 274.714C445.152 277.185 443.813 279.269 442.102 280.965C440.391 282.625 438.345 283.879 435.965 284.728C433.621 285.576 431.092 286 428.376 286C425.735 286 423.243 285.576 420.9 284.728C418.556 283.879 416.51 282.625 414.762 280.965C413.014 279.269 411.638 277.185 410.633 274.714C409.629 272.206 409.127 269.31 409.127 266.028C409.127 262.745 409.648 259.868 410.689 257.397C411.731 254.889 413.125 252.787 414.874 251.09C416.659 249.393 418.705 248.121 421.011 247.272C423.355 246.424 425.81 246 428.376 246C431.017 246 433.51 246.424 435.853 247.272C438.196 248.121 440.242 249.393 441.991 251.09C443.739 252.787 445.115 254.889 446.119 257.397C447.124 259.868 447.626 262.745 447.626 266.028Z" fill="white"/>
<path d="M480.827 285.225C478.334 280.836 475.638 276.503 472.736 272.224C469.835 267.946 466.747 263.907 463.474 260.108V285.225H454.882V246.885H461.968C463.195 248.102 464.553 249.596 466.041 251.367C467.529 253.137 469.035 255.036 470.56 257.065C472.122 259.057 473.666 261.141 475.191 263.317C476.716 265.456 478.148 267.521 479.487 269.513V246.885H488.136V285.225H480.827Z" fill="white"/>
<path d="M520.378 246.885H529.082V285.225H520.378V268.96H505.759V285.225H497.055V246.885H505.759V261.546H520.378V246.885Z" fill="white"/>
<path d="M553.151 286C550.436 286 548.092 285.631 546.121 284.893C544.149 284.119 542.513 283.068 541.211 281.74C539.946 280.375 538.997 278.771 538.365 276.927C537.77 275.046 537.472 272.98 537.472 270.73V246.885H546.177V270.011C546.177 271.56 546.344 272.888 546.679 273.994C547.051 275.064 547.534 275.949 548.129 276.65C548.762 277.314 549.506 277.793 550.361 278.089C551.254 278.384 552.221 278.531 553.263 278.531C555.383 278.531 557.094 277.886 558.396 276.595C559.735 275.304 560.404 273.109 560.404 270.011V246.885H569.109V270.73C569.109 272.98 568.792 275.046 568.16 276.927C567.528 278.808 566.561 280.431 565.259 281.795C563.957 283.123 562.302 284.156 560.293 284.893C558.284 285.631 555.904 286 553.151 286Z" fill="white"/>
<path d="M590.369 285.723C588.248 285.723 586.128 285.65 584.008 285.502C581.925 285.391 579.749 285.096 577.48 284.617V247.438C579.265 247.107 581.218 246.867 583.338 246.719C585.459 246.535 587.43 246.443 589.253 246.443C591.708 246.443 593.958 246.627 596.004 246.996C598.087 247.328 599.872 247.918 601.36 248.766C602.848 249.615 604.001 250.74 604.82 252.141C605.675 253.506 606.103 255.202 606.103 257.231C606.103 260.292 604.615 262.708 601.639 264.479C604.094 265.401 605.768 266.655 606.661 268.241C607.554 269.827 608 271.615 608 273.607C608 277.627 606.512 280.652 603.536 282.68C600.598 284.709 596.209 285.723 590.369 285.723ZM585.961 268.517V278.42C586.593 278.494 587.281 278.55 588.025 278.586C588.769 278.623 589.587 278.642 590.48 278.642C593.084 278.642 595.186 278.273 596.785 277.535C598.385 276.798 599.184 275.433 599.184 273.441C599.184 271.671 598.515 270.417 597.176 269.679C595.837 268.905 593.921 268.517 591.429 268.517H585.961ZM585.961 261.934H590.201C592.879 261.934 594.795 261.602 595.948 260.938C597.101 260.237 597.678 259.13 597.678 257.618C597.678 256.069 597.083 254.981 595.892 254.354C594.702 253.727 592.954 253.414 590.648 253.414C589.904 253.414 589.104 253.432 588.248 253.469C587.393 253.469 586.63 253.506 585.961 253.58V261.934Z" fill="white"/>
</g>
</g>
<g id="Group 3">
<path id="Line 2" d="M760 264H856" stroke="white" stroke-width="4"/>
<rect id="Rectangle 4" x="640" y="180" width="96" height="176" fill="white"/>
<g id="Group 177">
<rect id="Rectangle 5" x="698" y="244" width="38" height="48" fill="black"/>
<g id="ID">
<path d="M672 260H676V276H672V260Z" fill="black"/>
<path fill-rule="evenodd" clip-rule="evenodd" d="M694 268C694 276 686 276 686 276H680V260H686C686 260 694 260 694 268ZM684 272V264H686C686 264 690 264 690 268C690 272 686 272 686 272H684Z" fill="black"/>
</g>
<g id="EA">
<path d="M704 276V260H713V263H707V266.5H712V269.5H707V273H713V276H704Z" fill="white"/>
<path fill-rule="evenodd" clip-rule="evenodd" d="M725 271.5H721L719.5 276H716L721.5 260H724.5L730 276H726.5L725 271.5ZM721.5 269.5L723 264L724.5 269.5H721.5Z" fill="white"/>
</g>
</g>
</g>
<g id="splash" opacity="0.64">
<rect width="856" height="536" rx="32" fill="url(#paint1_linear)"/>
<rect width="856" height="536" rx="32" fill="url(#paint2_radial)"/>
</g>
</g>
<defs>
<linearGradient id="paint0_linear" x1="106" y1="64" x2="106" y2="148" gradientUnits="userSpaceOnUse">
<stop stop-color="white" stop-opacity="0.24"/>
<stop offset="1" stop-color="white" stop-opacity="0.02"/>
</linearGradient>
<linearGradient id="paint1_linear" x1="498" y1="536" x2="3.781e-05" y2="174" gradientUnits="userSpaceOnUse">
<stop stop-color="white" stop-opacity="0.03"/>
<stop offset="1" stop-color="white" stop-opacity="0"/>
</linearGradient>
<radialGradient id="paint2_radial" cx="0" cy="0" r="1" gradientUnits="userSpaceOnUse" gradientTransform="translate(548) rotate(135.634) scale(766.551 557.128)">
<stop stop-color="white" stop-opacity="0.04"/>
<stop offset="1" stop-color="white" stop-opacity="0"/>
</radialGradient>
</defs>
</svg>
