<svg width="100%" height="auto" viewBox="0 0 1280 1280" fill="none" xmlns="http://www.w3.org/2000/svg">
	<style>
		svg {
			background: linear-gradient(180deg, #000000 0%, rgba(0, 0, 0, 0) 20%, rgba(0, 0, 0, 0) 48%, rgba(0, 0, 0, 0) 80%, #000000 100%), #000000;
		}

	</style>

<g id="card_section_dark">
	<rect width="100%" height="auto" fill="black"/>
	<rect width="100%" height="auto" fill="url(#paint0_linear)"/>
	<g id="Group 177">
	<path id="8" d="M1108.8 479.957C1108.49 513.376 1099.44 543.116 1081.63 569.176C1063.82 595.237 1040.02 615.626 1010.24 630.342C1027.43 637.701 1042.94 646.898 1056.76 657.936C1070.88 668.667 1082.86 681.084 1092.68 695.187C1102.81 709.291 1110.49 724.62 1115.71 741.176C1121.24 757.733 1124 775.362 1124 794.064C1124 824.417 1118.32 851.397 1106.96 875.005C1095.9 898.613 1080.71 918.542 1061.36 934.791C1042.32 950.734 1019.91 962.998 994.117 971.583C968.325 979.861 941.938 984 912.461 984C883.617 984 855.521 979.861 829.422 971.583C803.63 963.305 781.062 951.194 761.717 935.251C742.68 919.002 727.635 899.073 716.581 875.465C705.527 851.857 700 824.724 700 794.064C700 775.362 702.61 757.733 707.83 741.176C713.05 724.314 720.572 708.984 730.398 695.187C740.224 681.084 752.045 668.513 765.862 657.476C779.68 646.438 795.186 637.241 812.381 629.882C797.642 622.524 784.286 613.786 772.311 603.668C760.336 593.244 750.203 581.747 741.912 569.176C733.622 556.299 727.174 542.349 722.568 527.326C717.962 512.303 715.66 496.513 715.66 479.957C715.66 450.831 720.572 424.923 730.398 402.235C740.224 379.241 753.734 359.925 770.929 344.289C788.431 328.652 809.157 316.695 833.107 308.417C857.364 300.139 883.77 296 911.079 296C939.328 296 964.333 300.139 988.59 308.417C1012.85 316.695 1033.88 328.652 1051.69 344.289C1069.5 359.925 1083.47 379.241 1093.6 402.235C1103.73 424.923 1108.8 450.831 1108.8 479.957ZM1038.79 792.225C1038.79 773.522 1035.57 756.353 1029.12 740.717C1022.98 725.08 1014.23 711.743 1002.87 700.706C991.507 689.362 977.844 680.624 961.877 674.492C946.217 668.36 930.27 665.294 911.539 665.294C892.195 665.294 875.94 668.36 860.281 674.492C844.621 680.624 831.264 689.362 820.211 700.706C809.157 711.743 800.559 725.08 794.418 740.717C788.584 756.353 785.667 773.522 785.667 792.225C785.667 811.54 788.584 828.863 794.418 844.193C800.559 859.216 809.157 871.939 820.211 882.364C831.264 892.788 844.621 900.759 860.281 906.278C876.247 911.797 892.809 914.556 912.461 914.556C931.191 914.556 947.139 911.797 962.798 906.278C978.458 900.759 991.814 892.788 1002.87 882.364C1014.23 871.939 1022.98 859.216 1029.12 844.193C1035.57 828.863 1038.79 811.54 1038.79 792.225ZM1023.13 481.337C1023.13 464.474 1020.22 448.991 1014.38 434.888C1008.86 420.784 1001.03 408.674 990.893 398.556C981.068 388.132 969.246 380.16 955.429 374.642C941.612 368.816 927.66 365.904 911.079 365.904C894.498 365.904 880.7 368.663 867.189 374.182C853.679 379.394 842.011 387.059 832.186 397.176C822.36 407.294 814.684 419.558 809.157 433.968C803.937 448.071 801.327 463.861 801.327 481.337C801.327 498.813 803.937 514.602 809.157 528.706C814.684 542.503 822.36 554.46 832.186 564.578C842.318 574.389 854.14 582.053 867.65 587.572C881.467 592.784 895.419 595.39 912 595.39C928.274 595.39 942.072 592.784 955.889 587.572C969.707 582.053 981.528 574.389 991.354 564.578C1001.49 554.46 1009.32 542.349 1014.84 528.246C1020.37 514.143 1023.13 498.506 1023.13 481.337Z" fill="#050505"/>
	<path id="4" d="M520.375 755.346H580V838.989H520.375V984H423.208V838.989H156V755.346L434.986 296H520.375V755.346ZM248.75 755.346H423.208V450.785L248.75 755.346Z" fill="#050505"/>
	<g id="Vector">
	<mask id="path-4-inside-1" fill="white">
	<path d="M640 1046C864.228 1046 1046 864.228 1046 640C1046 415.772 864.228 234 640 234C415.772 234 234 415.772 234 640C234 864.228 415.772 1046 640 1046Z"/>
	</mask>
	<path d="M640 1046C864.228 1046 1046 864.228 1046 640C1046 415.772 864.228 234 640 234C415.772 234 234 415.772 234 640C234 864.228 415.772 1046 640 1046Z" stroke="url(#paint1_linear)" stroke-width="2" mask="url(#path-4-inside-1)"/>
	</g>
	<g id="Vector_2">
	<mask id="path-5-inside-2" fill="white">
	<path d="M640 832C746.039 832 832 746.039 832 640C832 533.961 746.039 448 640 448C533.961 448 448 533.961 448 640C448 746.039 533.961 832 640 832Z"/>
	</mask>
	<path d="M640 832C746.039 832 832 746.039 832 640C832 533.961 746.039 448 640 448C533.961 448 448 533.961 448 640C448 746.039 533.961 832 640 832Z" stroke="url(#paint2_linear)" stroke-width="2" mask="url(#path-5-inside-2)"/>
	</g>
	<g id="Vector_3">
	<mask id="path-6-inside-3" fill="white">
	<path d="M640 1200C949.279 1200 1200 949.279 1200 640C1200 330.721 949.279 80 640 80C330.721 80 80 330.721 80 640C80 949.279 330.721 1200 640 1200Z"/>
	</mask>
	<path d="M640 1200C949.279 1200 1200 949.279 1200 640C1200 330.721 949.279 80 640 80C330.721 80 80 330.721 80 640C80 949.279 330.721 1200 640 1200Z" stroke="url(#paint3_linear)" stroke-width="8" stroke-dasharray="4 40" mask="url(#path-6-inside-3)"/>
	</g>
	</g>
</g>
<defs>
<linearGradient id="paint0_linear" x1="640" y1="0" x2="640" y2="1280" gradientUnits="userSpaceOnUse">
<stop/>
<stop offset="0.19401" stop-opacity="0"/>
<stop offset="0.470052" stop-opacity="0"/>
<stop offset="0.763021" stop-opacity="0"/>
<stop offset="1"/>
</linearGradient>
<linearGradient id="paint1_linear" x1="1046" y1="234" x2="234" y2="1046" gradientUnits="userSpaceOnUse">
<stop stop-color="white" stop-opacity="0.08"/>
<stop offset="1" stop-color="white" stop-opacity="0.04"/>
</linearGradient>
<linearGradient id="paint2_linear" x1="832" y1="448" x2="448" y2="832" gradientUnits="userSpaceOnUse">
<stop stop-color="white" stop-opacity="0.1"/>
<stop offset="1" stop-color="white" stop-opacity="0.04"/>
</linearGradient>
<linearGradient id="paint3_linear" x1="1200" y1="80" x2="80" y2="1200" gradientUnits="userSpaceOnUse">
<stop stop-color="white" stop-opacity="0.16"/>
<stop offset="1" stop-color="white" stop-opacity="0.04"/>
</linearGradient>
</defs>
</svg>
