<svg width="856" height="536" viewBox="0 0 856 536" fill="none" xmlns="http://www.w3.org/2000/svg">
<g id="card_side_a">
<rect id="bg" width="856" height="536" rx="32" fill="black"/>
<g id="Group 179">
<path id="Line 2" d="M736 268H856" stroke="white" stroke-width="4"/>
<g id="HACKER">
<path d="M538.607 250.797H546.298V285.303H538.607V270.664H525.691V285.303H518V250.797H525.691V263.992H538.607V250.797Z" fill="white"/>
<path d="M577.079 285.303C576.717 284.108 576.306 282.88 575.846 281.618C575.419 280.357 574.992 279.095 574.565 277.834H561.254C560.827 279.095 560.383 280.357 559.923 281.618C559.495 282.88 559.101 284.108 558.74 285.303H550.753C552.035 281.585 553.251 278.149 554.401 274.996C555.552 271.842 556.669 268.871 557.754 266.083C558.871 263.295 559.956 260.656 561.007 258.166C562.092 255.643 563.209 253.187 564.36 250.797H571.705C572.823 253.187 573.924 255.643 575.008 258.166C576.093 260.656 577.177 263.295 578.262 266.083C579.379 268.871 580.513 271.842 581.664 274.996C582.814 278.149 584.03 281.585 585.312 285.303H577.079ZM567.86 258.614C567.696 259.112 567.449 259.793 567.12 260.656C566.792 261.519 566.414 262.515 565.986 263.643C565.559 264.772 565.083 266.017 564.557 267.378C564.064 268.739 563.554 270.166 563.029 271.66H572.74C572.215 270.166 571.705 268.739 571.212 267.378C570.719 266.017 570.243 264.772 569.783 263.643C569.355 262.515 568.977 261.519 568.649 260.656C568.32 259.793 568.057 259.112 567.86 258.614Z" fill="white"/>
<path d="M604.061 286C598.506 286 594.267 284.44 591.342 281.32C588.449 278.199 587.003 273.768 587.003 268.025C587.003 265.17 587.447 262.631 588.334 260.407C589.222 258.149 590.438 256.257 591.983 254.73C593.527 253.17 595.368 251.992 597.504 251.195C599.64 250.398 601.957 250 604.455 250C605.901 250 607.216 250.116 608.399 250.349C609.582 250.548 610.618 250.797 611.505 251.095C612.392 251.361 613.132 251.643 613.723 251.942C614.315 252.241 614.742 252.473 615.005 252.639L612.787 258.913C611.735 258.349 610.503 257.867 609.089 257.469C607.709 257.071 606.131 256.871 604.357 256.871C603.173 256.871 602.007 257.071 600.856 257.469C599.739 257.867 598.737 258.515 597.849 259.411C596.995 260.274 596.304 261.402 595.779 262.797C595.253 264.191 594.99 265.884 594.99 267.876C594.99 269.469 595.154 270.963 595.483 272.357C595.844 273.718 596.403 274.896 597.159 275.892C597.948 276.888 598.967 277.685 600.215 278.282C601.464 278.846 602.976 279.129 604.751 279.129C605.868 279.129 606.871 279.062 607.758 278.929C608.646 278.797 609.434 278.647 610.125 278.481C610.815 278.282 611.423 278.066 611.949 277.834C612.475 277.602 612.951 277.386 613.378 277.187L615.498 283.411C614.414 284.075 612.885 284.672 610.913 285.203C608.941 285.734 606.657 286 604.061 286Z" fill="white"/>
<path d="M640.613 285.303C639.923 284.174 639.101 282.963 638.148 281.668C637.228 280.34 636.209 279.029 635.091 277.734C634.007 276.407 632.873 275.145 631.69 273.95C630.507 272.722 629.324 271.643 628.14 270.714V285.303H620.45V250.797H628.14V263.842C630.145 261.718 632.15 259.51 634.155 257.22C636.193 254.896 638.082 252.755 639.824 250.797H648.945C646.611 253.585 644.261 256.274 641.895 258.863C639.561 261.452 637.096 264.058 634.5 266.68C637.228 268.971 639.857 271.693 642.388 274.846C644.951 278 647.4 281.485 649.733 285.303H640.613Z" fill="white"/>
<path d="M654.15 285.303V250.797H677.222V257.32H661.841V264.091H675.497V270.465H661.841V278.78H678.356V285.303H654.15Z" fill="white"/>
<path d="M694.055 250.398C699.182 250.398 703.11 251.328 705.838 253.187C708.565 255.012 709.929 257.867 709.929 261.751C709.929 264.174 709.371 266.149 708.253 267.676C707.169 269.17 705.591 270.349 703.521 271.212C704.211 272.075 704.934 273.071 705.69 274.199C706.446 275.295 707.185 276.456 707.908 277.685C708.664 278.88 709.387 280.141 710.077 281.469C710.768 282.763 711.408 284.041 712 285.303H703.373C702.748 284.174 702.107 283.029 701.45 281.867C700.826 280.705 700.168 279.577 699.478 278.481C698.821 277.386 698.163 276.357 697.506 275.394C696.849 274.398 696.191 273.502 695.534 272.705H691.738V285.303H684.047V251.295C685.724 250.963 687.449 250.73 689.224 250.598C691.031 250.465 692.642 250.398 694.055 250.398ZM694.499 257.021C693.94 257.021 693.431 257.037 692.971 257.071C692.543 257.104 692.132 257.137 691.738 257.17V266.531H693.907C696.799 266.531 698.87 266.166 700.119 265.436C701.368 264.705 701.992 263.461 701.992 261.701C701.992 260.008 701.351 258.813 700.07 258.116C698.821 257.386 696.964 257.021 694.499 257.021Z" fill="white"/>
</g>
<g id="HUB">
<path d="M457.67 260.179H461.279V275.687H457.67V269.108H451.609V275.687H448V260.179H451.609V266.109H457.67V260.179Z" fill="white"/>
<path d="M471.258 276C470.133 276 469.161 275.851 468.344 275.552C467.526 275.239 466.848 274.814 466.308 274.277C465.783 273.725 465.39 273.076 465.128 272.33C464.881 271.569 464.758 270.734 464.758 269.824V260.179H468.367V269.533C468.367 270.159 468.436 270.697 468.575 271.144C468.729 271.577 468.93 271.935 469.176 272.218C469.439 272.487 469.747 272.681 470.102 272.8C470.472 272.919 470.873 272.979 471.305 272.979C472.184 272.979 472.893 272.718 473.433 272.196C473.988 271.674 474.266 270.786 474.266 269.533V260.179H477.875V269.824C477.875 270.734 477.744 271.569 477.482 272.33C477.219 273.091 476.818 273.747 476.279 274.299C475.739 274.836 475.052 275.254 474.22 275.552C473.387 275.851 472.4 276 471.258 276Z" fill="white"/>
<path d="M486.69 275.888C485.811 275.888 484.931 275.858 484.052 275.799C483.189 275.754 482.286 275.634 481.346 275.441V260.403C482.086 260.269 482.896 260.172 483.775 260.112C484.654 260.037 485.471 260 486.227 260C487.245 260 488.178 260.075 489.026 260.224C489.89 260.358 490.63 260.597 491.247 260.94C491.864 261.283 492.342 261.738 492.681 262.305C493.036 262.857 493.213 263.543 493.213 264.364C493.213 265.602 492.597 266.579 491.363 267.295C492.381 267.668 493.075 268.175 493.445 268.817C493.815 269.458 494 270.182 494 270.987C494 272.614 493.383 273.837 492.149 274.657C490.931 275.478 489.111 275.888 486.69 275.888ZM484.862 268.929V272.934C485.124 272.964 485.41 272.986 485.718 273.001C486.026 273.016 486.366 273.024 486.736 273.024C487.815 273.024 488.687 272.875 489.35 272.576C490.013 272.278 490.345 271.726 490.345 270.92C490.345 270.204 490.067 269.697 489.512 269.399C488.957 269.085 488.162 268.929 487.129 268.929H484.862ZM484.862 266.266H486.62C487.731 266.266 488.525 266.131 489.003 265.863C489.481 265.579 489.72 265.132 489.72 264.52C489.72 263.894 489.473 263.454 488.98 263.2C488.486 262.946 487.762 262.82 486.805 262.82C486.497 262.82 486.165 262.827 485.811 262.842C485.456 262.842 485.14 262.857 484.862 262.887V266.266Z" fill="white"/>
</g>
</g>
<g id="Group 2">
<rect id="Rectangle 5" x="704" y="318" width="96" height="176" fill="url(#paint0_linear)"/>
<g id="IRON LEADER">
<path d="M630 333.398H633.666V350.651H630V333.398Z" fill="white"/>
<path d="M642.206 333.199C644.65 333.199 646.522 333.664 647.822 334.593C649.122 335.506 649.773 336.934 649.773 338.876C649.773 340.087 649.506 341.075 648.974 341.838C648.457 342.585 647.705 343.174 646.718 343.606C647.047 344.037 647.391 344.535 647.752 345.1C648.112 345.647 648.464 346.228 648.809 346.842C649.169 347.44 649.514 348.071 649.843 348.734C650.172 349.382 650.478 350.021 650.76 350.651H646.647C646.35 350.087 646.044 349.515 645.731 348.934C645.433 348.353 645.12 347.788 644.791 347.241C644.477 346.693 644.164 346.178 643.851 345.697C643.537 345.199 643.224 344.751 642.911 344.353H641.101V350.651H637.435V333.647C638.234 333.481 639.057 333.365 639.903 333.299C640.764 333.232 641.532 333.199 642.206 333.199ZM642.417 336.51C642.151 336.51 641.908 336.519 641.689 336.535C641.485 336.552 641.289 336.568 641.101 336.585V341.266H642.135C643.514 341.266 644.501 341.083 645.096 340.718C645.692 340.353 645.989 339.73 645.989 338.851C645.989 338.004 645.684 337.407 645.073 337.058C644.477 336.693 643.592 336.51 642.417 336.51Z" fill="white"/>
<path d="M655.775 342.012C655.775 342.859 655.869 343.622 656.057 344.303C656.26 344.983 656.542 345.573 656.903 346.071C657.279 346.552 657.733 346.925 658.266 347.191C658.798 347.456 659.409 347.589 660.099 347.589C660.772 347.589 661.375 347.456 661.908 347.191C662.456 346.925 662.911 346.552 663.271 346.071C663.647 345.573 663.929 344.983 664.117 344.303C664.321 343.622 664.423 342.859 664.423 342.012C664.423 341.166 664.321 340.402 664.117 339.722C663.929 339.025 663.647 338.436 663.271 337.954C662.911 337.456 662.456 337.075 661.908 336.809C661.375 336.544 660.772 336.411 660.099 336.411C659.409 336.411 658.798 336.552 658.266 336.834C657.733 337.1 657.279 337.481 656.903 337.979C656.542 338.461 656.26 339.05 656.057 339.747C655.869 340.427 655.775 341.183 655.775 342.012ZM668.206 342.012C668.206 343.49 667.994 344.793 667.571 345.921C667.164 347.033 666.6 347.971 665.88 348.734C665.159 349.481 664.297 350.046 663.295 350.427C662.308 350.809 661.242 351 660.099 351C658.986 351 657.937 350.809 656.95 350.427C655.963 350.046 655.101 349.481 654.365 348.734C653.628 347.971 653.049 347.033 652.626 345.921C652.203 344.793 651.991 343.49 651.991 342.012C651.991 340.535 652.211 339.241 652.649 338.129C653.088 337 653.675 336.054 654.412 335.29C655.164 334.527 656.025 333.954 656.997 333.573C657.984 333.191 659.018 333 660.099 333C661.211 333 662.261 333.191 663.248 333.573C664.235 333.954 665.096 334.527 665.833 335.29C666.569 336.054 667.149 337 667.571 338.129C667.994 339.241 668.206 340.535 668.206 342.012Z" fill="white"/>
<path d="M682.189 350.651C681.139 348.676 680.004 346.726 678.782 344.801C677.56 342.876 676.259 341.058 674.881 339.349V350.651H671.262V333.398H674.246C674.763 333.946 675.335 334.618 675.962 335.415C676.588 336.212 677.223 337.066 677.865 337.979C678.523 338.876 679.173 339.813 679.816 340.793C680.458 341.755 681.061 342.685 681.625 343.581V333.398H685.268V350.651H682.189Z" fill="white"/>
<path d="M705.55 347.315V350.651H694.67V333.398H698.335V347.315H705.55Z" fill="white"/>
<path d="M707.911 350.651V333.398H718.909V336.66H711.577V340.046H718.086V343.232H711.577V347.39H719.449V350.651H707.911Z" fill="white"/>
<path d="M733.066 350.651C732.894 350.054 732.698 349.44 732.478 348.809C732.275 348.178 732.071 347.548 731.867 346.917H725.523C725.319 347.548 725.107 348.178 724.888 348.809C724.684 349.44 724.496 350.054 724.324 350.651H720.517C721.128 348.793 721.708 347.075 722.256 345.498C722.804 343.921 723.337 342.436 723.854 341.041C724.387 339.647 724.904 338.328 725.405 337.083C725.922 335.822 726.455 334.593 727.003 333.398H730.504C731.037 334.593 731.562 335.822 732.079 337.083C732.596 338.328 733.113 339.647 733.63 341.041C734.163 342.436 734.703 343.921 735.251 345.498C735.8 347.075 736.379 348.793 736.99 350.651H733.066ZM728.672 337.307C728.593 337.556 728.476 337.896 728.319 338.328C728.162 338.759 727.982 339.257 727.779 339.822C727.575 340.386 727.348 341.008 727.097 341.689C726.862 342.369 726.619 343.083 726.369 343.83H730.998C730.747 343.083 730.504 342.369 730.269 341.689C730.034 341.008 729.807 340.386 729.588 339.822C729.384 339.257 729.204 338.759 729.047 338.328C728.891 337.896 728.765 337.556 728.672 337.307Z" fill="white"/>
<path d="M742.764 347.49C742.937 347.506 743.132 347.523 743.352 347.539C743.587 347.539 743.861 347.539 744.174 347.539C746.007 347.539 747.362 347.05 748.24 346.071C749.133 345.091 749.579 343.739 749.579 342.012C749.579 340.203 749.156 338.834 748.31 337.905C747.464 336.975 746.125 336.51 744.292 336.51C744.041 336.51 743.783 336.519 743.516 336.535C743.25 336.535 742.999 336.552 742.764 336.585V347.49ZM753.363 342.012C753.363 343.506 753.143 344.809 752.705 345.921C752.266 347.033 751.639 347.954 750.825 348.685C750.026 349.415 749.046 349.963 747.887 350.328C746.728 350.693 745.428 350.876 743.986 350.876C743.328 350.876 742.561 350.842 741.683 350.776C740.806 350.726 739.944 350.61 739.098 350.427V333.622C739.944 333.456 740.822 333.349 741.73 333.299C742.655 333.232 743.446 333.199 744.104 333.199C745.498 333.199 746.759 333.365 747.887 333.697C749.031 334.029 750.01 334.552 750.825 335.266C751.639 335.979 752.266 336.892 752.705 338.004C753.143 339.116 753.363 340.452 753.363 342.012Z" fill="white"/>
<path d="M756.425 350.651V333.398H767.422V336.66H760.091V340.046H766.6V343.232H760.091V347.39H767.963V350.651H756.425Z" fill="white"/>
<path d="M775.446 333.199C777.89 333.199 779.762 333.664 781.063 334.593C782.363 335.506 783.013 336.934 783.013 338.876C783.013 340.087 782.747 341.075 782.214 341.838C781.697 342.585 780.945 343.174 779.958 343.606C780.287 344.037 780.632 344.535 780.992 345.1C781.352 345.647 781.705 346.228 782.05 346.842C782.41 347.44 782.755 348.071 783.084 348.734C783.413 349.382 783.718 350.021 784 350.651H779.888C779.59 350.087 779.284 349.515 778.971 348.934C778.673 348.353 778.36 347.788 778.031 347.241C777.718 346.693 777.404 346.178 777.091 345.697C776.778 345.199 776.464 344.751 776.151 344.353H774.342V350.651H770.676V333.647C771.475 333.481 772.297 333.365 773.143 333.299C774.005 333.232 774.773 333.199 775.446 333.199ZM775.658 336.51C775.391 336.51 775.149 336.519 774.929 336.535C774.726 336.552 774.53 336.568 774.342 336.585V341.266H775.376C776.754 341.266 777.741 341.083 778.337 340.718C778.932 340.353 779.23 339.73 779.23 338.851C779.23 338.004 778.924 337.407 778.313 337.058C777.718 336.693 776.833 336.51 775.658 336.51Z" fill="white"/>
</g>
</g>
<g id="49">
<path d="M460.564 389.245C455.645 395.64 450.411 402.6 444.862 410.124C439.313 417.649 434.647 425.361 430.863 433.261H460.564V389.245ZM488.183 355.01V433.261H502.182V456.21H488.183V485.367H460.564V456.21H404V435.707C406.775 430.189 410.243 423.982 414.405 417.084C418.567 410.062 423.17 402.914 428.215 395.64C433.385 388.242 438.808 381.031 444.484 374.008C450.159 366.986 455.834 360.653 461.51 355.01H488.183Z" fill="url(#paint1_linear)"/>
<path d="M608 449.062C608 454.705 606.991 459.91 604.973 464.675C603.081 469.315 600.181 473.39 596.271 476.902C592.361 480.413 587.443 483.172 581.515 485.178C575.714 487.059 568.967 488 561.273 488C552.445 488 545.067 486.809 539.14 484.426C533.338 481.918 528.609 478.846 524.952 475.209C521.42 471.572 518.898 467.622 517.385 463.358C515.871 458.969 515.114 454.956 515.114 451.319C515.114 447.557 515.619 444.109 516.628 440.974C517.637 437.839 519.024 435.017 520.79 432.509C522.555 429.876 524.51 427.493 526.654 425.361C528.924 423.229 531.321 421.223 533.843 419.342C528.42 414.953 524.384 410.626 521.736 406.362C519.213 402.099 517.952 396.644 517.952 389.997C517.952 384.981 518.961 380.153 520.979 375.513C523.123 370.873 526.087 366.86 529.87 363.474C533.654 359.963 538.194 357.204 543.491 355.198C548.914 353.066 554.905 352 561.463 352C569.156 352 575.714 353.129 581.137 355.386C586.686 357.518 591.226 360.277 594.758 363.663C598.289 367.048 600.811 370.873 602.325 375.137C603.964 379.275 604.784 383.414 604.784 387.552C604.784 393.571 603.144 399.214 599.865 404.481C596.712 409.623 592.74 413.698 587.947 416.708C595.136 421.348 600.244 426.239 603.271 431.38C606.424 436.396 608 442.29 608 449.062ZM542.545 450.191C542.545 451.696 542.86 453.389 543.491 455.27C544.248 457.025 545.383 458.656 546.896 460.16C548.409 461.665 550.364 462.919 552.761 463.923C555.157 464.926 558.057 465.427 561.463 465.427C568.021 465.427 572.813 463.86 575.84 460.725C578.867 457.59 580.38 454.078 580.38 450.191C580.38 447.307 579.687 444.736 578.299 442.479C577.038 440.221 575.273 438.278 573.002 436.647C570.732 434.892 568.021 433.387 564.868 432.133C561.841 430.753 558.562 429.499 555.031 428.371C551.499 431.004 548.536 434.077 546.139 437.588C543.743 441.099 542.545 445.3 542.545 450.191ZM577.543 388.304C577.543 386.925 577.227 385.483 576.597 383.978C576.092 382.348 575.146 380.843 573.759 379.463C572.498 378.084 570.858 376.955 568.841 376.077C566.823 375.074 564.363 374.573 561.463 374.573C558.688 374.573 556.292 375.012 554.274 375.889C552.256 376.767 550.553 377.959 549.166 379.463C547.905 380.843 546.959 382.348 546.329 383.978C545.698 385.608 545.383 387.176 545.383 388.681C545.383 392.693 546.833 396.456 549.734 399.967C552.761 403.478 557.868 406.488 565.057 408.996C569.093 406.488 572.183 403.603 574.327 400.343C576.471 397.083 577.543 393.07 577.543 388.304Z" fill="url(#paint2_linear)"/>
</g>
<g id="Vector">
<path d="M319.438 251.341C319.352 251.341 319.295 251.341 319.209 251.37L310.548 195.565C312.063 195.01 313.063 193.55 313.063 191.914C313.063 189.753 311.348 188.001 309.233 188.001C308.347 188.001 307.489 188.322 306.774 188.906L268.411 149.629C268.869 148.957 269.097 148.198 269.097 147.41C269.097 145.249 267.382 143.497 265.267 143.497C263.523 143.497 262.037 144.665 261.579 146.388L206.808 137.51C206.693 135.466 205.007 133.801 202.977 133.801C200.862 133.801 199.146 135.554 199.146 137.714C199.146 138.328 199.289 138.941 199.604 139.525L151.35 164.639C150.606 163.821 149.606 163.354 148.52 163.354C146.404 163.354 144.689 165.106 144.689 167.267C144.689 168.581 145.318 169.779 146.404 170.509L122.106 219.219C121.62 219.014 121.134 218.927 120.648 218.927C118.532 218.927 116.817 220.679 116.817 222.84C116.817 225.001 118.532 226.753 120.648 226.753C120.734 226.753 120.819 226.753 120.905 226.724L129.167 280.076C127.366 280.427 126.051 282.033 126.051 283.902C126.051 286.063 127.766 287.815 129.881 287.815C130.482 287.815 131.053 287.669 131.596 287.377L171.16 327.793C170.76 328.436 170.56 329.137 170.56 329.896C170.56 332.057 172.275 333.809 174.39 333.809C175.906 333.809 177.249 332.904 177.878 331.502L232.592 340.35C232.592 340.409 232.592 340.467 232.592 340.526C232.592 342.687 234.308 344.439 236.423 344.439C238.538 344.439 240.254 342.687 240.254 340.526C240.254 339.942 240.111 339.357 239.853 338.803L288.908 313.28C289.651 314.097 290.652 314.565 291.738 314.565C293.853 314.565 295.568 312.812 295.568 310.651C295.568 309.308 294.882 308.082 293.768 307.352L317.952 258.846C318.438 259.051 318.924 259.168 319.438 259.168C321.554 259.168 323.269 257.415 323.269 255.254C323.297 253.093 321.554 251.341 319.438 251.341ZM287.964 311.323L273.929 313.542C273.814 313.134 273.614 312.725 273.357 312.374L288.05 298.532C288.651 299.087 289.422 299.379 290.251 299.379L291.023 306.855C289.222 307.206 287.936 308.783 287.936 310.681C287.879 310.856 287.907 311.06 287.964 311.323ZM220.872 334.189C221.044 334.013 221.186 333.809 221.329 333.575L228.962 337.284L220.872 334.189ZM123.535 225.439L130.767 230.9V264.19C130.139 264.336 129.567 264.658 129.109 265.125C127.766 266.497 127.766 268.746 129.109 270.148C129.595 270.644 130.196 270.965 130.882 271.111L130.024 280.018C129.996 280.018 129.938 280.018 129.91 280.018H129.881L121.591 226.636C122.334 226.432 123.021 226.023 123.535 225.439ZM152.35 166.917L160.783 165.369C160.898 165.778 161.098 166.158 161.355 166.537L149.206 177.955C148.605 177.401 147.834 177.109 147.005 177.109C145.175 177.109 143.689 178.627 143.689 180.496C143.689 182.131 144.861 183.533 146.404 183.825L145.975 189.286L133.798 206.428C132.425 205.493 130.596 205.639 129.424 206.866C128.08 208.238 128.08 210.458 129.395 211.83L122.878 219.686C122.82 219.657 122.792 219.627 122.735 219.598L147.033 170.888C147.519 171.122 148.034 171.21 148.548 171.21C150.664 171.21 152.379 169.458 152.379 167.297C152.379 167.151 152.379 167.034 152.35 166.917ZM139.772 235.163C139.372 235.338 139 235.63 138.686 235.981L131.454 230.52V212.852C131.854 212.911 132.254 212.882 132.626 212.794L139.772 235.163ZM167.501 163.675L170.989 162.537C171.332 163.471 172.075 164.201 172.99 164.552L173.133 164.99L167.558 164.435C167.558 164.172 167.558 163.909 167.501 163.675ZM186.597 166.333L177.335 161.982C177.392 161.748 177.392 161.544 177.392 161.339L195.03 165.457C194.601 165.924 194.315 166.479 194.201 167.092L186.597 166.333ZM284.22 174.276L280.075 177.079L272.271 166.128C272.499 165.866 272.699 165.544 272.842 165.223L284.191 172.874C284.105 173.108 284.048 173.312 284.048 173.546C284.077 173.78 284.134 174.042 284.22 174.276ZM177.621 287.173L158.639 287.348C158.468 285.625 157.067 284.282 155.352 284.282C155.238 284.282 155.095 284.282 154.98 284.311L153.751 259.956C153.78 259.956 153.78 259.956 153.808 259.956C154.351 259.956 154.866 259.781 155.323 259.46L178.135 284.661C177.735 285.129 177.535 285.742 177.535 286.355C177.506 286.647 177.535 286.91 177.621 287.173ZM229.334 153.863L234.536 152.841L257.348 160.405L249.201 166.333C248.744 165.924 248.144 165.72 247.543 165.72C247.4 165.72 247.257 165.72 247.114 165.749C246.486 164.902 245.514 164.406 244.484 164.406C244.056 164.406 243.655 164.493 243.255 164.668L229.076 155.207C229.248 154.827 229.362 154.448 229.362 154.039C229.362 153.98 229.362 153.922 229.334 153.863ZM295.426 191.885L291.595 193.258L289.165 189.841L294.797 189.578C294.768 189.724 294.768 189.841 294.768 189.958C294.768 190.659 294.997 191.33 295.426 191.885ZM299.742 272.63L258.32 288.166C257.949 287.436 257.263 286.939 256.462 286.793L257.892 257.328C258.778 257.269 259.578 256.744 259.978 255.926L299.714 271.403C299.656 271.608 299.628 271.841 299.628 272.017C299.685 272.221 299.685 272.425 299.742 272.63ZM209.866 179.649L185.625 192.06C185.139 191.33 184.339 190.892 183.481 190.892C183.309 190.892 183.109 190.921 182.909 190.951L174.076 165.778L186.511 167.034L209.552 177.839C209.523 178.014 209.495 178.189 209.495 178.335C209.523 178.802 209.638 179.24 209.866 179.649ZM188.512 167.238L194.115 167.793C194.115 168.874 194.63 169.837 195.402 170.45L188.512 167.238ZM200.576 166.771L211.953 169.428C211.953 169.487 211.953 169.516 211.953 169.574C211.953 170.626 212.639 171.531 213.64 171.823L212.725 175.795C212.525 175.736 212.325 175.707 212.153 175.707C211.124 175.707 210.238 176.291 209.809 177.225L196.774 171.093C196.974 171.122 197.202 171.151 197.431 171.151C199.261 171.151 200.747 169.633 200.747 167.764C200.747 167.443 200.69 167.092 200.576 166.771ZM299.971 211.392L270.041 202.602C270.069 202.456 270.069 202.31 270.069 202.194C270.069 202.018 270.041 201.843 270.012 201.639L278.617 198.572C279.131 198.864 279.646 198.981 280.189 198.981C281.533 198.981 282.705 198.164 283.248 196.908L291.338 194.017L301.114 207.771C301.057 207.83 300.971 207.888 300.914 207.946C299.999 208.881 299.656 210.195 299.971 211.392ZM158.754 241.325C158.897 241.588 159.097 241.821 159.354 241.996L154.437 254.729C154.208 254.67 154.008 254.641 153.808 254.641C153.694 254.641 153.608 254.641 153.522 254.67L150.149 240.39L158.754 241.325ZM159.897 203.595L188.426 225.205C188.198 225.614 188.083 226.052 188.083 226.49C188.083 226.753 188.112 227.016 188.198 227.278L161.612 239.777C161.355 239.31 160.898 239.018 160.383 238.959L158.496 204.384C159.039 204.267 159.525 203.975 159.897 203.595ZM214.269 171.881C215.326 171.852 216.241 171.064 216.441 170.012L236.48 170.363C236.48 170.421 236.509 170.509 236.509 170.567L214.612 177.663C214.44 176.933 213.954 176.32 213.297 175.97L214.269 171.881ZM189.455 250.261L173.847 257.24C173.39 256.452 172.532 255.955 171.618 255.955C171.217 255.955 170.846 256.043 170.474 256.247L161.241 241.88C161.355 241.792 161.441 241.675 161.527 241.529L189.455 249.151C189.398 249.355 189.398 249.531 189.398 249.706C189.37 249.881 189.398 250.056 189.455 250.261ZM161.812 240.39L188.512 227.862C188.941 228.593 189.713 229.06 190.542 229.118L191.542 247.049V247.078C190.742 247.224 190.056 247.749 189.684 248.479L161.812 240.887C161.841 240.77 161.841 240.653 161.841 240.566C161.812 240.507 161.812 240.449 161.812 240.39ZM257.577 191.389L212.525 205.318C212.353 204.997 212.125 204.705 211.839 204.471L237.652 172.319C238.567 172.903 239.796 172.845 240.654 172.144L258.12 189.315C257.72 189.782 257.52 190.396 257.52 191.009C257.548 191.126 257.577 191.272 257.577 191.389ZM193 227.716L229.848 241.558C229.762 241.792 229.705 242.026 229.705 242.259L194.372 248.713C194.001 247.779 193.143 247.136 192.171 247.049L191.171 229.089C191.971 228.943 192.629 228.417 193 227.716ZM244.113 224.125L233.307 240.011C232.964 239.865 232.621 239.777 232.278 239.777C231.964 239.777 231.621 239.835 231.335 239.982L211.61 208.764C211.924 208.56 212.182 208.297 212.382 208.005L243.112 221.321L243.341 221.438C243.284 221.672 243.227 221.905 243.227 222.168C243.255 222.898 243.57 223.599 244.113 224.125ZM211.01 209.056L230.763 240.303C230.534 240.478 230.306 240.712 230.163 240.945L193.258 227.074C193.315 226.87 193.343 226.665 193.343 226.49C193.343 225.906 193.143 225.322 192.772 224.855L208.466 208.443C209.094 209.085 210.038 209.377 211.01 209.056ZM255.547 253.239L250.888 250.932L234.794 242.989C234.851 242.785 234.851 242.61 234.851 242.435C234.851 241.617 234.479 240.828 233.85 240.332L244.627 224.475C245.142 224.738 245.685 224.855 246.228 224.738L256.319 252.422C256.033 252.655 255.776 252.918 255.547 253.239ZM211.296 204.121C210.981 203.975 210.667 203.887 210.352 203.858L212.468 180.934C213.754 180.759 214.726 179.649 214.726 178.335L236.709 171.181C236.823 171.443 236.995 171.677 237.195 171.881L211.296 204.121ZM231.163 244.829C231.535 245.004 231.906 245.092 232.278 245.092C233.279 245.092 234.165 244.508 234.594 243.603L255.262 253.823C255.176 254.086 255.119 254.378 255.119 254.67C255.119 255.021 255.176 255.371 255.319 255.692L212.268 280.865C212.125 280.661 211.924 280.485 211.724 280.31L231.163 244.829ZM257.72 252.042C257.52 252.042 257.32 252.071 257.12 252.13L247.029 224.504C247.6 224.212 248.029 223.687 248.258 223.073L281.418 230.228C281.418 230.286 281.418 230.345 281.418 230.403C281.418 230.9 281.561 231.367 281.818 231.805L259.292 252.626C258.835 252.247 258.292 252.042 257.72 252.042ZM246.657 219.627C245.456 219.219 244.227 219.773 243.627 220.825L212.668 207.421C212.753 207.129 212.811 206.837 212.811 206.545C212.811 206.34 212.782 206.136 212.725 205.99L257.749 192.06C257.977 192.586 258.32 193.024 258.806 193.316L246.657 219.627ZM185.654 194.951L207.694 205.873C207.637 206.107 207.608 206.311 207.608 206.545C207.608 207.041 207.751 207.508 208.008 207.946L192.257 224.417C191.8 224.066 191.256 223.862 190.685 223.862C190.599 223.862 190.513 223.862 190.427 223.891L184.339 196.061C184.91 195.827 185.368 195.448 185.654 194.951ZM155.037 254.962L159.954 242.201C160.212 242.23 160.44 242.23 160.64 242.142L169.474 255.838L169.931 256.539C169.474 256.919 169.188 257.445 169.073 258.029L156.381 257.094C156.352 256.247 155.838 255.4 155.037 254.962ZM194.572 249.706C194.572 249.589 194.572 249.472 194.544 249.356L229.734 242.931C229.848 243.544 230.134 244.099 230.62 244.508L211.181 280.047C210.552 279.784 209.866 279.784 209.237 280.047L193.601 251.808C194.201 251.254 194.572 250.494 194.572 249.706ZM281.59 229.527L248.429 222.372C248.429 222.314 248.429 222.226 248.429 222.139C248.429 221.584 248.258 221.088 247.943 220.62L265.753 204.179C266.496 204.822 267.554 205.026 268.497 204.588L282.39 228.271C282.047 228.622 281.761 229.031 281.59 229.527ZM211.81 180.963L209.695 203.946C208.951 204.092 208.294 204.588 207.951 205.26L185.939 194.367C186.025 194.075 186.082 193.812 186.082 193.52C186.082 193.228 186.025 192.907 185.939 192.644L210.295 180.204C210.695 180.613 211.238 180.876 211.81 180.963ZM144.117 239.719L149.434 240.303L152.865 254.816C152.779 254.846 152.665 254.904 152.579 254.962L142.802 241.15C143.374 240.799 143.831 240.303 144.117 239.719ZM264.895 202.194C264.895 202.748 265.067 203.245 265.381 203.712L247.543 220.153C247.457 220.065 247.343 220.007 247.229 219.919L259.407 193.55C260.121 193.783 260.807 193.666 261.408 193.316L265.781 200.179C265.21 200.675 264.895 201.405 264.895 202.194ZM258.635 188.848L241.14 171.677C241.483 171.21 241.654 170.684 241.654 170.1C241.654 169.983 241.654 169.896 241.626 169.779L241.769 169.75C242.398 170.655 243.398 171.181 244.484 171.181C245.113 171.181 245.742 171.005 246.257 170.655C247 171.093 247.943 171.151 248.715 170.713L258.721 188.79C258.692 188.819 258.663 188.848 258.635 188.848ZM241.168 167.793C241.168 168.143 241.226 168.465 241.34 168.786C240.883 167.968 240.025 167.443 239.082 167.443C238.624 167.443 238.167 167.559 237.738 167.822L228.59 155.908C228.648 155.849 228.676 155.82 228.733 155.762L242.598 165.019C241.712 165.632 241.168 166.683 241.168 167.793ZM228.104 156.316L237.224 168.231C236.823 168.64 236.595 169.166 236.509 169.72L216.498 169.37C216.47 168.932 216.298 168.523 216.041 168.173L225.389 156.287C226.218 156.813 227.275 156.813 228.104 156.316ZM146.747 216.065C146.747 215.451 146.547 214.838 146.147 214.371L156.438 203.829C156.867 204.15 157.324 204.355 157.839 204.384L159.726 238.989C159.611 239.018 159.525 239.047 159.44 239.105L145.775 218.138C146.404 217.642 146.747 216.882 146.747 216.065ZM158.582 240.595L149.978 239.66L145.004 218.605C145.089 218.576 145.175 218.547 145.261 218.488L158.982 239.543C158.696 239.835 158.582 240.186 158.582 240.595ZM144.346 239.047C144.403 238.784 144.46 238.521 144.46 238.259C144.46 236.711 143.431 235.338 141.973 234.988L144.289 218.751C144.317 218.751 144.346 218.751 144.375 218.751L149.32 239.602L144.346 239.047ZM156.324 257.795L169.016 258.729C169.102 260.131 170.217 261.241 171.618 261.241C171.76 261.241 171.903 261.212 172.075 261.182L179.021 283.931C178.879 283.99 178.736 284.077 178.593 284.194L155.781 258.992C156.067 258.642 156.238 258.262 156.324 257.795ZM174.219 258.583C174.219 258.35 174.19 258.087 174.105 257.824L189.656 250.874C189.913 251.4 190.313 251.809 190.799 252.071L180.594 283.756C180.422 283.727 180.251 283.698 180.108 283.698C179.965 283.698 179.822 283.727 179.65 283.756L172.704 261.007C173.619 260.569 174.219 259.635 174.219 258.583ZM191.428 252.276C191.628 252.334 191.8 252.363 192 252.363C192.371 252.363 192.743 252.276 193.086 252.101L208.694 280.339C208.037 280.836 207.637 281.624 207.637 282.471L182.623 285.713C182.423 284.953 181.909 284.311 181.223 283.99L191.428 252.276ZM212.811 282.5C212.811 282.471 212.811 282.471 212.811 282.442C212.811 282.091 212.753 281.77 212.611 281.42L255.662 256.276C256.062 256.802 256.634 257.182 257.291 257.299L255.862 286.764C254.776 286.851 253.861 287.611 253.546 288.691L212.811 282.5ZM283.448 196.149C283.476 195.944 283.505 195.769 283.505 195.594C283.505 193.725 282.018 192.206 280.189 192.206C278.359 192.206 276.873 193.725 276.873 195.594C276.873 196.557 277.273 197.463 277.959 198.105L269.812 200.996C269.383 200.091 268.469 199.536 267.497 199.536C267.096 199.536 266.725 199.624 266.353 199.799L261.951 192.907C262.437 192.44 262.723 191.797 262.751 191.126L288.336 189.899L290.909 193.52L283.448 196.149ZM215.584 167.705C215.183 167.413 214.697 167.238 214.211 167.238C213.268 167.238 212.41 167.851 212.067 168.786L201.519 166.333L224.817 155.82C224.846 155.849 224.846 155.878 224.874 155.878L215.584 167.705ZM183.481 196.178C183.567 196.178 183.652 196.178 183.738 196.149L189.827 223.979C189.456 224.125 189.112 224.329 188.827 224.65L160.297 203.04C160.526 202.632 160.64 202.194 160.64 201.726C160.64 201.58 160.612 201.405 160.583 201.259L181.137 194.601C181.566 195.565 182.48 196.178 183.481 196.178ZM222.959 305.833C222.673 305.833 222.387 305.891 222.101 305.979L211.667 284.661C212.182 284.311 212.553 283.785 212.725 283.172L253.461 289.334C253.461 289.363 253.461 289.363 253.461 289.392C253.461 289.742 253.518 290.064 253.661 290.385L225.046 306.884C224.531 306.242 223.759 305.833 222.959 305.833ZM282.99 227.979L269.097 204.296C269.44 204.033 269.698 203.654 269.869 203.245L300.285 212.181C300.457 212.502 300.657 212.765 300.857 212.998C301.143 213.29 301.486 213.524 301.886 213.699C301.972 213.991 302.058 214.225 302.201 214.459L285.792 228.447C285.306 227.979 284.677 227.716 284.02 227.716C283.677 227.746 283.333 227.804 282.99 227.979ZM262.694 190.454C262.637 190.221 262.58 189.987 262.465 189.782L279.903 177.985L287.907 189.228L262.694 190.454ZM229.219 153.221C228.876 152.141 227.876 151.381 226.761 151.381C225.846 151.381 224.988 151.907 224.531 152.725L219.528 148.957C219.7 148.636 219.843 148.315 219.929 147.994L233.279 152.433L229.219 153.221ZM180.937 193.988L160.383 200.646C159.954 199.711 159.039 199.098 158.039 199.098C157.696 199.098 157.353 199.186 157.01 199.332L149.234 185.899L152.236 181.693L180.994 192.878C180.937 193.112 180.908 193.316 180.908 193.52C180.908 193.666 180.908 193.842 180.937 193.988ZM155.723 200.587L155.609 200.879C155.495 201.171 155.466 201.463 155.466 201.755C155.466 202.34 155.666 202.894 156.009 203.391L145.69 213.933C145.432 213.729 145.146 213.582 144.832 213.524L146.662 189.549L148.834 186.512L156.467 199.682C156.152 199.916 155.895 200.237 155.723 200.587ZM144.146 213.436C143.631 213.436 143.145 213.582 142.717 213.904L142.488 214.108C142.345 214.254 142.202 214.4 142.059 214.575L135.084 210.721C135.627 209.407 135.341 207.859 134.341 206.866L145.89 190.629L144.146 213.436ZM134.112 265.212L151.521 258.525C151.864 259.168 152.436 259.664 153.122 259.839L154.408 284.428C153.008 284.866 152.064 286.18 152.064 287.669C152.064 288.925 152.75 290.064 153.837 290.648L152.407 295.875C152.15 295.817 151.921 295.787 151.721 295.787C151.578 295.787 151.464 295.787 151.321 295.817L133.397 270.615C133.655 270.469 133.855 270.294 134.026 270.118C135.341 268.775 135.37 266.614 134.112 265.212ZM210.009 285.099C210.381 285.129 210.724 285.099 211.067 284.953L221.501 306.271C220.758 306.768 220.329 307.585 220.329 308.461C220.329 308.958 220.472 309.454 220.729 309.863L203.063 324.756C202.805 324.493 202.462 324.289 202.119 324.172L210.009 285.099ZM258.606 289.567C258.606 289.509 258.606 289.45 258.606 289.421C258.606 289.246 258.578 289.042 258.52 288.837L299.313 273.535L284.363 294.532L273.185 292.4L258.606 289.567ZM283.962 295.087L272.328 311.44C271.785 311.119 271.184 310.943 270.555 310.943C270.069 310.943 269.583 311.06 269.126 311.265L257.949 291.173C258.177 290.911 258.378 290.56 258.492 290.21L283.962 295.087ZM299.971 270.79L260.236 255.313C260.293 255.079 260.321 254.875 260.321 254.7C260.321 254.174 260.15 253.648 259.835 253.181L282.333 232.418C282.99 233.002 283.934 233.207 284.791 232.944L299.399 266.264L300.228 268.191C300.314 268.658 300.514 269.096 300.8 269.505L300.914 269.768C300.514 270.031 300.199 270.381 299.971 270.79ZM301.629 207.392L291.967 193.812L295.883 192.411C296.455 192.936 297.198 193.228 297.97 193.228C298.141 193.228 298.341 193.199 298.513 193.17L302.458 207.07C302.172 207.129 301.886 207.246 301.629 207.392ZM260.979 188.498C260.464 188.322 259.835 188.293 259.292 188.498L249.23 170.334C249.802 169.837 250.116 169.107 250.116 168.348C250.116 167.793 249.944 167.267 249.63 166.8L258.092 160.638L266.21 163.325C266.096 164.406 266.439 165.486 267.182 166.245C267.468 166.537 267.811 166.8 268.211 166.975L260.979 188.498ZM167.501 165.106L173.39 165.69L182.337 191.155C181.852 191.389 181.48 191.797 181.223 192.265L152.636 181.139L162.356 167.443C163.699 168.26 165.471 168.027 166.586 166.888C167.044 166.421 167.387 165.807 167.501 165.106ZM146.747 188.206L147.09 183.884C147.148 183.884 147.233 183.884 147.29 183.854L148.434 185.84L146.747 188.206ZM147.977 183.738C149.206 183.358 150.121 182.277 150.292 180.934L151.578 181.431L148.863 185.227L147.977 183.738ZM134.77 211.334L141.745 215.189C141.716 215.247 141.716 215.305 141.688 215.364L141.63 215.656V215.685C141.602 215.802 141.602 215.919 141.602 216.065C141.602 216.415 141.659 216.736 141.802 217.058L141.945 217.35C142.316 218.021 142.917 218.459 143.603 218.635L141.287 234.842C141.03 234.813 140.773 234.842 140.458 234.929L133.312 212.56C133.712 212.385 134.055 212.152 134.369 211.83C134.484 211.714 134.627 211.538 134.77 211.334ZM140.401 241.558C140.658 241.617 140.887 241.646 141.116 241.646C141.459 241.646 141.83 241.588 142.173 241.471L152.007 255.371C151.779 255.605 151.578 255.868 151.435 256.189L151.321 256.481C151.235 256.773 151.178 257.036 151.178 257.299C151.178 257.503 151.207 257.707 151.264 257.912L133.512 264.745C133.312 264.599 133.14 264.512 132.94 264.424L140.401 241.558ZM176.048 316.959L191.171 323.004L175.162 317.689C175.505 317.514 175.82 317.28 176.048 316.959ZM176.62 315.295C176.62 314.243 175.991 313.309 175.077 312.871L179.879 288.983C179.936 288.983 180.022 288.983 180.079 288.983C180.394 288.983 180.708 288.925 181.022 288.808L199.804 324.523C199.489 324.756 199.203 325.048 199.032 325.428L176.391 316.375C176.563 316.054 176.62 315.674 176.62 315.295ZM182.681 286.355L207.694 283.114C207.922 283.96 208.551 284.661 209.38 284.953L201.519 324.055C201.147 323.997 200.747 324.085 200.376 324.231L181.594 288.516C182.28 288.02 182.681 287.231 182.681 286.355ZM276.959 167.151L273.042 164.522C273.071 164.406 273.071 164.318 273.1 164.201L276.959 167.151ZM262.094 189.257C261.951 189.082 261.779 188.936 261.579 188.79L268.869 167.209C269.898 167.472 270.956 167.238 271.785 166.596L279.531 177.488L262.094 189.257ZM266.382 162.683L258.806 160.171L262.38 157.572C262.866 157.893 263.494 157.893 264.009 157.631L267.154 161.368C266.811 161.719 266.553 162.157 266.382 162.683ZM249.344 153.046C250.516 153.046 251.602 152.403 252.174 151.381L261.636 155.791C261.608 155.908 261.608 156.024 261.608 156.141C261.608 156.492 261.722 156.813 261.922 157.105L258.063 159.908L235.937 152.579L246.142 150.564C246.543 152.024 247.858 153.046 249.344 153.046ZM173.847 165.048L173.733 164.727C173.847 164.727 173.962 164.756 174.076 164.756C175.42 164.756 176.62 163.909 177.135 162.653L184.624 166.158L173.847 165.048ZM151.95 180.905L150.292 180.262C150.235 179.62 150.035 179.007 149.635 178.51L161.755 167.121L151.95 180.905ZM214.897 331.882L209.952 329.983L214.869 331.619C214.897 331.706 214.897 331.794 214.897 331.882ZM221.158 310.418C221.644 310.885 222.273 311.148 222.93 311.148C224.074 311.148 225.074 310.389 225.389 309.279L267.096 314.711C267.096 314.886 267.125 315.032 267.154 315.207L245.657 322.303L203.835 326.158C203.777 325.837 203.663 325.574 203.491 325.311L221.158 310.418ZM225.532 308.607C225.532 308.578 225.532 308.52 225.532 308.461C225.532 308.111 225.474 307.79 225.332 307.468L253.947 290.969C254.433 291.641 255.204 292.049 256.033 292.049C256.548 292.049 257.034 291.903 257.463 291.611L268.611 311.586C268.411 311.732 268.268 311.849 268.154 311.966C267.611 312.52 267.268 313.25 267.182 314.039L225.532 308.607ZM287.593 297.978L272.928 311.79L284.706 295.203L286.935 295.612C286.935 295.7 286.907 295.817 286.907 295.933C286.907 296.693 287.135 297.394 287.593 297.978ZM300.257 266.643L285.363 232.652C285.735 232.418 286.049 232.097 286.278 231.688L295.254 235.426C295.454 237.12 296.855 238.434 298.541 238.434C299.285 238.434 300.028 238.171 300.628 237.675L303.287 238.784V263.957C302.486 264.044 301.715 264.395 301.171 264.979C300.714 265.417 300.4 266.001 300.257 266.643ZM301.858 235.046C301.858 233.177 300.371 231.659 298.541 231.659C296.826 231.659 295.426 232.973 295.254 234.725L286.535 231.075C286.592 230.841 286.621 230.608 286.621 230.403C286.621 229.907 286.478 229.41 286.192 228.972L302.601 214.984C302.801 215.159 303.03 215.335 303.258 215.451V238.054L301.086 237.149C301.6 236.536 301.858 235.806 301.858 235.046ZM294.968 188.906L288.708 189.198L280.446 177.605L284.563 174.802C284.906 175.181 285.363 175.386 285.878 175.386C286.164 175.386 286.449 175.327 286.707 175.181L295.797 187.563C295.426 187.943 295.14 188.41 294.968 188.906ZM154.694 300.606C154.894 300.139 155.009 299.671 155.009 299.175C155.009 297.832 154.237 296.634 153.036 296.079L154.437 290.881C154.752 290.969 155.037 291.027 155.352 291.027C157.096 291.027 158.525 289.684 158.639 287.903L177.907 287.757C178.221 288.253 178.678 288.633 179.25 288.837L174.476 312.696C174.333 312.666 174.19 312.666 174.047 312.666C172.904 312.666 171.875 313.455 171.56 314.594L171.475 314.944C171.446 315.061 171.446 315.178 171.446 315.324C171.446 315.528 171.475 315.762 171.56 316.025L171.646 316.346C171.675 316.434 171.703 316.521 171.76 316.58L167.901 315.295C168.044 314.185 167.701 313.075 166.929 312.287C165.786 311.119 164.014 310.914 162.641 311.79L154.694 300.606ZM303.973 239.047L306.288 240.011C306.06 240.478 305.945 240.974 305.945 241.471C305.945 242.814 306.717 244.011 307.918 244.566L303.973 262.701V239.047ZM303.973 238.346V215.656C304.173 215.685 304.345 215.714 304.516 215.685L308.318 238.229C307.632 238.434 307.06 238.872 306.631 239.427L303.973 238.346ZM308.918 238.054L305.145 215.568C306.231 215.218 306.974 214.225 306.974 213.028C306.974 212.852 306.946 212.677 306.917 212.502V212.444L306.431 212.006C307.06 210.633 306.803 209.027 305.774 207.976C305.488 207.684 305.174 207.45 304.773 207.275L308.404 195.652C308.575 195.681 308.718 195.711 308.89 195.74L308.918 238.054ZM267.668 160.901L265.524 158.361L268.326 160.522C268.097 160.609 267.868 160.755 267.668 160.901ZM218.985 149.658C219.043 149.629 219.071 149.571 219.1 149.512L224.245 153.396C224.188 153.63 224.159 153.834 224.159 154.039C224.159 154.448 224.245 154.856 224.445 155.207L200.404 166.041L200.204 165.982C199.604 164.96 198.546 164.376 197.403 164.376C196.774 164.376 196.145 164.552 195.602 164.902L177.278 160.638C177.249 160.58 177.249 160.492 177.22 160.434L213.297 148.461C213.468 148.899 213.725 149.308 214.04 149.629C215.441 151.031 217.642 151.031 218.985 149.658ZM131.454 231.396L138.257 236.536C137.943 237.061 137.8 237.645 137.8 238.259C137.8 239.602 138.572 240.799 139.744 241.354L132.311 264.22C132.025 264.161 131.768 264.132 131.511 264.132C131.482 264.132 131.454 264.132 131.454 264.132V231.396ZM215.898 329.224C215.441 329.691 215.126 330.276 214.983 330.889L203.863 327.209C203.892 327.063 203.92 326.917 203.92 326.8L242.912 323.238L221.53 330.334C221.358 329.925 221.101 329.545 220.815 329.253C220.157 328.582 219.3 328.202 218.356 328.202C217.413 328.202 216.555 328.553 215.898 329.224ZM248.715 322.04L267.382 315.85C267.468 316.054 267.554 316.229 267.668 316.404L264.066 319.12C263.437 318.39 262.551 318.01 261.608 318.01C259.864 318.01 258.406 319.412 258.292 321.194L248.715 322.04ZM287.05 294.999L285.134 294.619L300.142 273.535C300.314 273.798 300.543 274.032 300.771 274.207L291.223 292.75C290.88 292.634 290.566 292.575 290.223 292.575C288.765 292.575 287.479 293.568 287.05 294.999ZM302 274.674C302.086 274.674 302.172 274.703 302.286 274.703C302.801 274.703 303.287 274.528 303.744 274.236L303.773 274.207L303.801 274.148C304.116 273.389 304.43 272.571 304.802 271.579L304.831 271.52V271.462C304.802 271.257 304.716 271.053 304.602 270.849C305.174 270.673 305.688 270.381 306.117 269.972C307.175 268.892 307.432 267.315 306.774 265.942L316.894 258.116C317.037 258.262 317.208 258.408 317.38 258.496L293.196 307.001C293.167 307.001 293.139 306.972 293.11 306.972L302 274.674ZM315.608 255.254C315.608 256.101 315.893 256.919 316.408 257.62L306.403 265.358C306.288 265.212 306.203 265.096 306.088 264.979C305.631 264.512 305.031 264.19 304.345 264.044L308.518 244.8C308.775 244.858 309.033 244.888 309.261 244.888C309.862 244.888 310.462 244.712 310.977 244.391L316.894 252.363C316.065 253.093 315.608 254.145 315.608 255.254ZM304.144 207.041C303.887 206.983 303.63 206.954 303.344 206.954C303.287 206.954 303.201 206.954 303.144 206.954L299.17 192.966C300.371 192.469 301.171 191.272 301.171 189.958C301.171 188.147 299.742 186.687 297.97 186.687C297.398 186.687 296.826 186.833 296.312 187.154L287.736 175.473L306.003 189.782C305.602 190.425 305.402 191.126 305.402 191.856C305.402 193.404 306.346 194.835 307.746 195.448L304.144 207.041ZM305.374 188.381L287.507 174.393C287.65 174.13 287.707 173.838 287.707 173.546C287.707 172.436 286.764 171.531 285.62 171.706L268.04 150.272L305.374 188.381ZM284.648 172.173L273.1 163.296C272.985 162.507 272.671 161.807 272.128 161.252C271.356 160.463 270.241 160.084 269.155 160.259L264.695 156.842C264.809 156.608 264.838 156.375 264.838 156.141C264.838 155.47 264.438 154.886 263.838 154.623L264.466 151.235C264.752 151.294 265.01 151.323 265.267 151.323C266.039 151.323 266.811 151.089 267.439 150.622L284.934 171.94C284.849 171.998 284.734 172.086 284.648 172.173ZM263.18 154.477C262.808 154.477 262.437 154.623 262.151 154.886L260.922 153.922L261.922 155.119L252.46 150.71C252.574 150.359 252.632 149.98 252.632 149.629C252.632 149.425 252.603 149.22 252.574 148.987L261.522 148.111C261.751 149.395 262.608 150.505 263.809 151.002L263.18 154.477ZM261.436 147.439L252.374 148.315C251.86 147.059 250.659 146.242 249.344 146.242C247.515 146.242 246.028 147.76 246.028 149.629C246.028 149.717 246.028 149.804 246.057 149.892L234.679 152.141L220.014 147.264C220.043 146.271 219.7 145.307 219.014 144.635C217.67 143.263 215.469 143.263 214.097 144.635C214.068 144.694 214.011 144.723 213.983 144.781L206.55 139.175C206.665 138.853 206.75 138.532 206.808 138.211L261.493 147.059C261.465 147.176 261.436 147.293 261.436 147.439ZM213.154 147.819L177.02 159.821C176.449 158.711 175.305 157.981 174.076 157.981C172.246 157.981 170.76 159.5 170.76 161.368C170.76 161.544 170.76 161.69 170.789 161.865L167.301 163.033C167.129 162.595 166.872 162.245 166.558 161.923C165.9 161.252 165.043 160.872 164.099 160.872C163.185 160.872 162.298 161.252 161.641 161.923C160.926 162.653 160.555 163.675 160.64 164.698L152.207 166.245C152.122 165.866 151.95 165.515 151.779 165.223L199.975 140.138C200.69 141.102 201.833 141.657 203.005 141.657C204.32 141.657 205.521 140.956 206.236 139.817L213.582 145.336C213.125 146.066 212.982 146.972 213.154 147.819ZM129.91 212.268C130.167 212.444 130.453 212.59 130.767 212.706V230.023L123.935 224.884C124.307 224.271 124.507 223.57 124.507 222.869C124.507 221.847 124.107 220.883 123.392 220.124L129.91 212.268ZM131.539 271.17C131.94 271.17 132.368 271.082 132.74 270.965L150.549 296.021C149.892 296.255 149.32 296.722 148.92 297.306L133.226 285.8C133.54 285.216 133.683 284.574 133.683 283.931C133.683 282.062 132.425 280.485 130.653 280.106L131.539 271.17ZM132.883 286.355L148.634 297.919C148.463 298.328 148.377 298.766 148.377 299.175C148.377 301.044 149.863 302.562 151.693 302.562C152.722 302.562 153.694 302.066 154.323 301.248L162.098 312.199C162.07 312.228 162.041 312.258 162.012 312.287C161.355 312.958 160.983 313.864 160.983 314.798C160.983 315.733 161.355 316.638 162.012 317.31C163.07 318.39 164.7 318.653 166.043 317.952L171.789 327.092C171.732 327.151 171.646 327.209 171.589 327.297L132.225 287.027C132.454 286.851 132.683 286.618 132.883 286.355ZM166.929 317.31C167.301 316.93 167.558 316.492 167.73 315.966L172.875 317.66C173.133 317.806 173.39 317.894 173.647 317.923L198.775 326.275C198.746 326.421 198.718 326.567 198.718 326.713C198.718 326.771 198.718 326.83 198.718 326.917L178.192 329.516C177.992 327.53 176.363 326.012 174.39 326.012C173.647 326.012 172.933 326.246 172.304 326.654L166.586 317.572C166.729 317.485 166.815 317.397 166.929 317.31ZM178.221 330.217L198.86 327.589C199.089 328.261 199.575 328.815 200.233 329.107L200.547 329.195C200.804 329.253 201.062 329.312 201.319 329.37H201.347C202.205 329.37 202.977 328.932 203.434 328.231L215.012 332.699C215.183 333.313 215.469 333.838 215.869 334.276C217.041 335.474 218.871 335.649 220.243 334.714L232.735 339.533C232.707 339.591 232.707 339.65 232.678 339.708L178.078 330.889C178.164 330.626 178.192 330.422 178.221 330.217ZM221.73 331.006L245.971 322.975L258.349 321.836C258.406 322.274 258.549 322.712 258.749 323.092L239.053 337.722C238.338 337.021 237.424 336.642 236.423 336.642C235.08 336.642 233.822 337.372 233.136 338.569L221.587 332.962C221.815 332.32 221.873 331.648 221.73 331.006ZM259.149 323.617C259.778 324.347 260.664 324.756 261.608 324.756C263.437 324.756 264.924 323.238 264.924 321.369C264.924 320.755 264.752 320.171 264.466 319.675L268.097 316.959L268.125 316.988C268.783 317.66 269.641 318.04 270.584 318.04C271.499 318.04 272.385 317.66 273.042 316.988C273.757 316.258 274.129 315.265 274.043 314.214L288.136 311.995C288.222 312.258 288.336 312.491 288.479 312.725L239.51 338.219L259.149 323.617ZM293.539 295.963C293.539 294.736 292.881 293.597 291.824 293.013L301.286 274.674L292.424 306.826C292.195 306.768 291.967 306.768 291.709 306.768C291.681 306.768 291.681 306.768 291.652 306.768L290.88 299.321C292.453 298.941 293.539 297.569 293.539 295.963ZM312.577 241.471C312.577 240.186 311.863 239.018 310.748 238.434L310.891 238.2V238.025C310.891 237.937 310.891 237.85 310.891 237.762C310.891 237.675 310.891 237.587 310.891 237.529V236.857L310.148 238.2C309.976 238.142 309.805 238.113 309.633 238.083V195.74C309.747 195.74 309.833 195.711 309.948 195.711L318.552 251.429C318.18 251.516 317.809 251.692 317.437 251.925L311.52 243.924C312.177 243.281 312.577 242.405 312.577 241.471Z" fill="#181818"/>
<path d="M112.647 379.515C115.49 381.696 124.146 387.016 136.607 387.016C163.409 387.016 166.616 370.072 200.653 370.072C227.584 370.072 251.896 392.217 263.512 403.469L256.159 410C251.896 403.949 228.171 374.913 204.211 374.913C188.919 374.913 177.292 397.909 149.656 397.909C128.667 397.909 117.275 386.058 112.647 379.515Z" fill="#181818"/>
<path d="M179.57 370.144C167.59 369.844 150.161 379.599 132.614 379.215C118.614 378.916 93.7143 371.534 84.4005 349.629C90.0381 356.04 98.1892 364.668 123.359 364.871C138.651 364.991 152.651 369.233 157.689 369.233C150.748 367.424 142.961 364.656 136.701 358.52C130.829 352.769 124.427 333.895 119.624 328.203C128.339 332.074 145.181 351.798 151.946 357.61C163.01 367.124 168.189 367.292 179.57 370.144Z" fill="#181818"/>
<path d="M135.456 361.852C123.476 359.431 99.0817 355.033 93.2327 351.199C83.6253 344.908 62.8719 333.176 59.0782 306.669C62.9893 316.591 74.7343 327.724 91.3418 334.386C106.469 340.45 112.929 348.778 121.585 353.751C114.832 348.55 110.193 342.499 106.646 336.088C100.55 325.1 101.431 298.701 95.4995 291.079C105.224 300.151 113.422 318.461 115.783 325.567C120.634 340.198 125.614 356.16 135.456 361.852Z" fill="#181818"/>
<path d="M102.605 335.357C95.8402 328.215 69.5078 315.393 63.2243 305.831C56.8585 296.16 45.4306 287.197 48.5195 258.761C49.095 269.438 55.6605 279.588 68.6857 292.038C78.1757 301.109 83.8485 314.243 90.4844 321.792C85.7277 314.65 82.4743 306.298 81.1354 299.06C78.8334 286.658 88.1354 265.268 84.9291 256.101C91.2714 267.88 93.0096 287.317 92.9979 294.818C92.9744 310.277 97.2613 328.455 102.605 335.357Z" fill="#181818"/>
<path d="M76.8603 295.298C70.5767 282.835 53.4994 268.072 50.7746 253.309C48.6605 241.865 44.8434 229.462 53.2645 208.66C51.4793 218.941 53.3115 230.673 61.0985 245.568C68.8032 260.331 67.382 272.554 70.7059 278.054C68.9676 269.594 69.0616 260.619 70.5179 253.393C73.0079 241.026 86.9492 229.223 87.9006 216.401C89.3217 228.624 85.1875 246.934 82.8033 254.028C77.3418 270.253 74.617 277.982 76.8603 295.298Z" fill="#181818"/>
<path d="M67.617 250.876C66.0784 235.634 55.637 217.479 56.2243 202.716C56.6824 191.08 57.2579 180.835 71.6455 163.747C66.3133 173.549 66.4307 181.578 68.3217 198.354C70.1069 214.088 66.7361 226.55 68.2042 232.841C68.7915 220.499 71.3989 214.735 75.7915 208.887C83.9778 197.995 95.4761 193.405 98.2127 184.442C97.9661 194.244 91.2714 208.348 86.82 214.328C76.6724 227.988 69.273 234.423 67.617 250.876Z" fill="#181818"/>
<path d="M71.9391 209.163C75.0632 194.172 69.5783 179.505 73.5481 167.63C76.8602 157.707 81.6052 147.546 97.8603 142.453C92.8804 145.245 86.2562 154.652 85.528 161.458C83.6371 179.001 77.8468 186.599 77.3418 193.046C81.1354 182.393 87.2898 177.144 93.2328 172.95C104.297 165.149 110.075 160.128 113.516 152.267C113.164 162.309 107.233 174.891 98.9291 181.063C85.3519 191.152 75.2042 200.787 71.9391 209.163Z" fill="#181818"/>
<path d="M130.829 126C125.25 128.78 108.407 133.501 100.82 142.573C90.6606 154.712 90.8485 165.568 87.1841 172.339C93.4676 167.138 105.448 158.306 109.476 152.123C113.516 145.964 120.505 134.592 130.829 126Z" fill="#181818"/>
<path d="M323.353 379.515C320.51 381.696 311.854 387.016 299.393 387.016C272.591 387.016 269.384 370.072 235.347 370.072C208.416 370.072 184.104 392.217 172.488 403.469L179.84 410C184.104 403.949 207.829 374.913 231.789 374.913C247.081 374.913 258.708 397.909 286.344 397.909C307.333 397.909 318.725 386.058 323.353 379.515Z" fill="#181818"/>
<path d="M256.43 370.144C268.41 369.844 285.839 379.599 303.386 379.215C317.386 378.916 342.286 371.534 351.599 349.629C345.962 356.04 337.811 364.668 312.641 364.871C297.349 364.991 283.349 369.233 278.311 369.233C285.252 367.424 293.039 364.656 299.299 358.52C305.171 352.769 311.573 333.895 316.376 328.203C307.661 332.074 290.819 351.798 284.054 357.61C272.99 367.124 267.811 367.292 256.43 370.144Z" fill="#181818"/>
<path d="M300.544 361.852C312.524 359.431 336.918 355.033 342.767 351.199C352.375 344.908 373.128 333.176 376.922 306.669C373.011 316.591 361.266 327.724 344.658 334.386C329.531 340.45 323.071 348.778 314.415 353.751C321.168 348.55 325.807 342.499 329.354 336.088C335.45 325.1 334.569 298.701 340.5 291.079C330.776 300.151 322.578 318.461 320.217 325.567C315.366 340.198 310.386 356.16 300.544 361.852Z" fill="#181818"/>
<path d="M333.395 335.357C340.16 328.215 366.492 315.393 372.776 305.831C379.142 296.16 390.569 287.197 387.48 258.761C386.905 269.438 380.34 279.588 367.314 292.038C357.824 301.109 352.152 314.243 345.516 321.792C350.272 314.65 353.526 306.298 354.865 299.06C357.167 286.658 347.865 265.268 351.071 256.101C344.729 267.88 342.99 287.317 343.002 294.818C343.026 310.277 338.739 328.455 333.395 335.357Z" fill="#181818"/>
<path d="M359.14 295.298C365.423 282.835 382.501 268.072 385.225 253.309C387.34 241.865 391.157 229.462 382.735 208.66C384.521 218.941 382.688 230.673 374.902 245.568C367.197 260.331 368.618 272.554 365.294 278.054C367.032 269.594 366.938 260.619 365.482 253.393C362.992 241.026 349.051 229.223 348.099 216.401C346.678 228.624 350.813 246.934 353.197 254.028C358.658 270.253 361.383 277.982 359.14 295.298Z" fill="#181818"/>
<path d="M368.383 250.876C369.922 235.634 380.363 217.479 379.776 202.716C379.318 191.08 378.742 180.835 364.355 163.747C369.687 173.549 369.569 181.578 367.678 198.354C365.893 214.088 369.264 226.55 367.796 232.841C367.209 220.499 364.601 214.735 360.209 208.887C352.022 197.995 340.524 193.405 337.787 184.442C338.034 194.244 344.729 208.348 349.18 214.328C359.328 227.988 366.727 234.423 368.383 250.876Z" fill="#181818"/>
<path d="M364.061 209.163C360.937 194.172 366.422 179.505 362.452 167.63C359.14 157.707 354.395 147.546 338.14 142.453C343.12 145.245 349.744 154.652 350.472 161.458C352.363 179.001 358.153 186.599 358.658 193.046C354.865 182.393 348.71 177.144 342.767 172.95C331.703 165.149 325.925 160.128 322.484 152.267C322.836 162.309 328.767 174.891 337.071 181.063C350.648 191.152 360.796 200.787 364.061 209.163Z" fill="#181818"/>
<path d="M305.171 126C310.75 128.78 327.593 133.501 335.18 142.573C345.339 154.712 345.151 165.568 348.816 172.339C342.532 167.138 330.552 158.306 326.524 152.123C322.484 145.964 315.495 134.592 305.171 126Z" fill="#181818"/>
</g>
<g id="splash" opacity="0.64">
<rect width="856" height="536" rx="32" fill="url(#paint3_linear)"/>
<rect width="856" height="536" rx="32" fill="url(#paint4_radial)"/>
</g>
</g>
<defs>
<linearGradient id="paint0_linear" x1="752" y1="318" x2="752" y2="494" gradientUnits="userSpaceOnUse">
<stop stop-color="#525252"/>
<stop offset="1"/>
</linearGradient>
<linearGradient id="paint1_linear" x1="506" y1="310" x2="506" y2="488" gradientUnits="userSpaceOnUse">
<stop stop-color="#414141"/>
<stop offset="1"/>
</linearGradient>
<linearGradient id="paint2_linear" x1="506" y1="310" x2="506" y2="488" gradientUnits="userSpaceOnUse">
<stop stop-color="#414141"/>
<stop offset="1"/>
</linearGradient>
<linearGradient id="paint3_linear" x1="498" y1="536" x2="3.781e-05" y2="174" gradientUnits="userSpaceOnUse">
<stop stop-color="white" stop-opacity="0.03"/>
<stop offset="1" stop-color="white" stop-opacity="0"/>
</linearGradient>
<radialGradient id="paint4_radial" cx="0" cy="0" r="1" gradientUnits="userSpaceOnUse" gradientTransform="translate(548) rotate(135.634) scale(766.551 557.128)">
<stop stop-color="white" stop-opacity="0.04"/>
<stop offset="1" stop-color="white" stop-opacity="0"/>
</radialGradient>
</defs>
</svg>
