<svg width="1124" height="960" viewBox="0 0 1124 960" fill="none" xmlns="http://www.w3.org/2000/svg">
<g clip-path="url(#clip0)">
<path d="M1073.56 743.756L1079.55 749.749L1085.54 743.756L1079.55 737.762L1073.56 743.756Z" fill="white" fill-opacity="0.24"/>
<path d="M899 789.456L901.997 792.452L904.993 789.456L901.997 786.459L899 789.456Z" fill="white" fill-opacity="0.24"/>
<path d="M931.964 730.27L936.459 734.765L940.954 730.27L936.459 725.775L931.964 730.27Z" fill="white" fill-opacity="0.24"/>
<path d="M1074.31 554.214L1077.3 557.211L1080.3 554.214L1077.3 551.218L1074.31 554.214Z" fill="white" fill-opacity="0.24"/>
<path d="M994.894 684.571L997.891 687.568L1000.89 684.571L997.891 681.574L994.894 684.571Z" fill="white" fill-opacity="0.24"/>
<path d="M937.208 526.495L941.703 530.99L946.198 526.495L941.703 522L937.208 526.495Z" fill="white" fill-opacity="0.24"/>
<path d="M1118.01 695.808L1121 698.805L1124 695.808L1121 692.812L1118.01 695.808Z" fill="white" fill-opacity="0.24"/>
<path d="M136.343 248.234L140.646 252.538L144.95 248.234L140.646 243.931L136.343 248.234Z" fill="white" fill-opacity="0.24"/>
<path d="M11 281.049L13.1518 283.201L15.3036 281.049L13.1518 278.897L11 281.049Z" fill="white" fill-opacity="0.24"/>
<path d="M34.6699 238.551L37.8976 241.779L41.1254 238.551L37.8976 235.323L34.6699 238.551Z" fill="white" fill-opacity="0.24"/>
<path d="M136.881 112.132L139.033 114.284L141.184 112.132L139.033 109.98L136.881 112.132Z" fill="white" fill-opacity="0.24"/>
<path d="M79.8584 205.736L82.0102 207.888L84.162 205.736L82.0102 203.584L79.8584 205.736Z" fill="white" fill-opacity="0.24"/>
<path d="M38.4355 92.2277L41.6633 95.4554L44.891 92.2277L41.6633 89L38.4355 92.2277Z" fill="white" fill-opacity="0.24"/>
<path d="M169.696 213.805L171.848 215.957L174 213.805L171.848 211.653L169.696 213.805Z" fill="white" fill-opacity="0.24"/>
<path d="M216 865L218 867L220 865L218 863L216 865Z" fill="white" fill-opacity="0.24"/>
<path d="M0 884.049L2.15182 886.201L4.30363 884.049L2.15182 881.897L0 884.049Z" fill="white" fill-opacity="0.24"/>
<path d="M23.6699 841.551L26.8976 844.779L30.1254 841.551L26.8976 838.323L23.6699 841.551Z" fill="white" fill-opacity="0.24"/>
<path d="M125.881 715.132L128.033 717.284L130.184 715.132L128.033 712.98L125.881 715.132Z" fill="white" fill-opacity="0.24"/>
<path d="M68.8584 808.736L71.0102 810.888L73.162 808.736L71.0102 806.584L68.8584 808.736Z" fill="white" fill-opacity="0.24"/>
<path d="M27.4355 695.228L30.6633 698.455L33.891 695.228L30.6633 692L27.4355 695.228Z" fill="white" fill-opacity="0.24"/>
<g filter="url(#filter0_f)">
<circle cx="184" cy="893" r="48" fill="white" fill-opacity="0.04"/>
</g>
<g filter="url(#filter1_f)">
<circle cx="97.5" cy="940.5" r="19.5" fill="white" fill-opacity="0.04"/>
</g>
<g filter="url(#filter2_f)">
<circle cx="195" cy="909" r="2" fill="white" fill-opacity="0.04"/>
</g>
<path d="M984.657 680.766L980.354 676.462L976.05 680.766L980.354 685.069L984.657 680.766Z" fill="white" fill-opacity="0.4"/>
<path d="M1110 647.951L1107.85 645.799L1105.7 647.951L1107.85 650.103L1110 647.951Z" fill="white" fill-opacity="0.4"/>
<path d="M1086.33 690.449L1083.1 687.221L1079.87 690.449L1083.1 693.677L1086.33 690.449Z" fill="white" fill-opacity="0.4"/>
<path d="M984.119 816.868L981.967 814.716L979.816 816.868L981.967 819.02L984.119 816.868Z" fill="white" fill-opacity="0.4"/>
<path d="M1041.14 723.264L1038.99 721.112L1036.84 723.264L1038.99 725.416L1041.14 723.264Z" fill="white" fill-opacity="0.4"/>
<path d="M1082.56 836.772L1079.34 833.545L1076.11 836.772L1079.34 840L1082.56 836.772Z" fill="white" fill-opacity="0.4"/>
<path d="M951.304 715.195L949.152 713.043L947 715.195L949.152 717.347L951.304 715.195Z" fill="white" fill-opacity="0.4"/>
<path d="M789 128L787 126L785 128L787 130L789 128Z" fill="white" fill-opacity="0.4"/>
<path d="M1005 108.951L1002.85 106.799L1000.7 108.951L1002.85 111.103L1005 108.951Z" fill="white" fill-opacity="0.4"/>
<path d="M981.33 151.449L978.102 148.221L974.875 151.449L978.102 154.677L981.33 151.449Z" fill="white" fill-opacity="0.4"/>
<path d="M879.119 277.868L876.967 275.716L874.816 277.868L876.967 280.02L879.119 277.868Z" fill="white" fill-opacity="0.4"/>
<path d="M936.142 184.264L933.99 182.112L931.838 184.264L933.99 186.416L936.142 184.264Z" fill="white" fill-opacity="0.4"/>
<path d="M977.564 297.772L974.337 294.545L971.109 297.772L974.337 301L977.564 297.772Z" fill="white" fill-opacity="0.4"/>
<g filter="url(#filter3_f)">
<circle cx="965" cy="48" r="48" transform="rotate(-180 965 48)" fill="white" fill-opacity="0.04"/>
</g>
<g filter="url(#filter4_f)">
<circle cx="795.5" cy="31.5" r="19.5" transform="rotate(-180 795.5 31.5)" fill="white" fill-opacity="0.04"/>
</g>
<g filter="url(#filter5_f)">
<circle cx="810" cy="84" r="2" transform="rotate(-180 810 84)" fill="white" fill-opacity="0.04"/>
</g>
</g>
<defs>
<filter id="filter0_f" x="128" y="837" width="112" height="112" filterUnits="userSpaceOnUse" color-interpolation-filters="sRGB">
<feFlood flood-opacity="0" result="BackgroundImageFix"/>
<feBlend mode="normal" in="SourceGraphic" in2="BackgroundImageFix" result="shape"/>
<feGaussianBlur stdDeviation="4" result="effect1_foregroundBlur"/>
</filter>
<filter id="filter1_f" x="70" y="913" width="55" height="55" filterUnits="userSpaceOnUse" color-interpolation-filters="sRGB">
<feFlood flood-opacity="0" result="BackgroundImageFix"/>
<feBlend mode="normal" in="SourceGraphic" in2="BackgroundImageFix" result="shape"/>
<feGaussianBlur stdDeviation="4" result="effect1_foregroundBlur"/>
</filter>
<filter id="filter2_f" x="191" y="905" width="8" height="8" filterUnits="userSpaceOnUse" color-interpolation-filters="sRGB">
<feFlood flood-opacity="0" result="BackgroundImageFix"/>
<feBlend mode="normal" in="SourceGraphic" in2="BackgroundImageFix" result="shape"/>
<feGaussianBlur stdDeviation="1" result="effect1_foregroundBlur"/>
</filter>
<filter id="filter3_f" x="909" y="-8" width="112" height="112" filterUnits="userSpaceOnUse" color-interpolation-filters="sRGB">
<feFlood flood-opacity="0" result="BackgroundImageFix"/>
<feBlend mode="normal" in="SourceGraphic" in2="BackgroundImageFix" result="shape"/>
<feGaussianBlur stdDeviation="4" result="effect1_foregroundBlur"/>
</filter>
<filter id="filter4_f" x="760" y="-4" width="71" height="71" filterUnits="userSpaceOnUse" color-interpolation-filters="sRGB">
<feFlood flood-opacity="0" result="BackgroundImageFix"/>
<feBlend mode="normal" in="SourceGraphic" in2="BackgroundImageFix" result="shape"/>
<feGaussianBlur stdDeviation="8" result="effect1_foregroundBlur"/>
</filter>
<filter id="filter5_f" x="806" y="80" width="8" height="8" filterUnits="userSpaceOnUse" color-interpolation-filters="sRGB">
<feFlood flood-opacity="0" result="BackgroundImageFix"/>
<feBlend mode="normal" in="SourceGraphic" in2="BackgroundImageFix" result="shape"/>
<feGaussianBlur stdDeviation="1" result="effect1_foregroundBlur"/>
</filter>
<clipPath id="clip0">
<rect width="1124" height="960" fill="white"/>
</clipPath>
</defs>
</svg>
