<svg width="128" height="24" viewBox="0 0 128 24" fill="none" xmlns="http://www.w3.org/2000/svg">
<path d="M30 22H47V24H30V22Z" fill="black"/>
<path d="M30 19H128V21H30V19Z" fill="black"/>
<path d="M24 19L23 20L24.5 21.5L23 23L24 24L25.5 22.5L27 24L28 23L26.5 21.5L28 20L27 19L25.5 20.5L24 19Z" fill="black"/>
<path d="M16 19L15 20L16.5 21.5L15 23L16 24L17.5 22.5L19 24L20 23L18.5 21.5L20 20L19 19L17.5 20.5L16 19Z" fill="black"/>
<path d="M8.5 19L7.5 20L9 21.5L7.5 23L8.5 24L10 22.5L11.5 24L12.5 23L11 21.5L12.5 20L11.5 19L10 20.5L8.5 19Z" fill="black"/>
<path d="M1 19L0 20L1.5 21.5L0 23L1 24L2.5 22.5L4 24L5 23L3.5 21.5L5 20L4 19L2.5 20.5L1 19Z" fill="black"/>
<path d="M0 0H4L9 10V0H12V15H9L3 5V15H0V0Z" fill="black"/>
<path fill-rule="evenodd" clip-rule="evenodd" d="M28 7.5C28 11.6421 24.6421 15 20.5 15C16.3579 15 13 11.6421 13 7.5C13 3.35786 16.3579 0 20.5 0C24.6421 0 28 3.35786 28 7.5ZM20.5 12C22.9853 12 25 9.98528 25 7.5C25 5.01472 22.9853 3 20.5 3C18.0147 3 16 5.01472 16 7.5C16 9.98528 18.0147 12 20.5 12Z" fill="black"/>
<path d="M18.5 4.5L17.5 5.5L19.5 7.5L17.5 9.5L18.5 10.5L20.5 8.5L22.5 10.5L23.5 9.5L21.5 7.5L23.5 5.5L22.5 4.5L20.5 6.5L18.5 4.5Z" fill="black"/>
<path d="M34 3H30V0H41V3H37V15H34V3Z" fill="black"/>
<path fill-rule="evenodd" clip-rule="evenodd" d="M47 0H50L56 15H52.5L51 11H46L44.5 15H41L47 0ZM48.5 4L50.5 9H46.5L48.5 4Z" fill="black"/>
<path fill-rule="evenodd" clip-rule="evenodd" d="M57 0H63.5C65.5 0 67.5 2.5 67.5 4.5C67.5 6.5 66 9 64 9L68 15H64.5L61 9H60V15H57V0ZM60 2.5H62.5C63.5 2.5 64.5 3.15625 64.5 4.5C64.5 5.84375 63.5 6.5 62.5 6.5H60V2.5Z" fill="black"/>
<path fill-rule="evenodd" clip-rule="evenodd" d="M75 0H78L84 15H80.5L79 11H74L72.5 15H69L75 0ZM76.5 4L78.5 9H74.5L76.5 4Z" fill="black"/>
<path d="M88 0V6L94 0H98L91.5 7L98 15H94L89 9L88 10V15H85V0H88Z" fill="black"/>
<path fill-rule="evenodd" clip-rule="evenodd" d="M105 0H108L114 15H110.5L109 11H104L102.5 15H99L105 0ZM106.5 4L108.5 9H104.5L106.5 4Z" fill="black"/>
<path d="M116 0H120L125 10V0H128V15H125L119 5V15H116V0Z" fill="black"/>
</svg>
