<svg width="720" height="85" viewBox="0 0 720 85" fill="none" xmlns="http://www.w3.org/2000/svg">
<path d="M0 0H19.9575L51.9187 54.342L51.1875 37.779V0H68.3719V84.9094H50.2594L16.4475 27.6918L17.1787 44.0114V84.9094H0V0ZM126.157 84.9094C118.029 84.9094 110.633 83.0754 103.984 79.4073C97.4588 75.6147 92.2837 70.4805 88.4587 64.0104C84.6337 57.5403 82.7325 50.3796 82.7325 42.5C82.7325 34.6204 84.645 27.522 88.4587 20.9896C92.2725 14.4572 97.4588 9.374 103.984 5.5927C110.644 1.89631 118.029 0 126.157 0C134.286 0 141.683 1.89631 148.331 5.68327C154.98 9.47023 160.217 14.6101 164.036 21.0802C167.856 27.5503 169.763 34.711 169.763 42.5906C169.763 50.4702 167.85 57.5686 164.036 64.101C160.223 70.6333 155.036 75.7166 148.331 79.4979C141.677 83.166 134.286 85 126.157 85V84.9094ZM126.157 68.7766C133.672 68.7766 139.894 66.3992 144.821 61.6273C149.749 56.7365 152.212 50.3796 152.212 42.5509C152.212 34.7223 149.749 28.3711 144.821 23.4746C139.894 18.5782 133.672 16.1385 126.157 16.1385C118.766 16.1385 112.545 18.5838 107.494 23.4746C102.566 28.3654 100.102 34.7223 100.102 42.5509C100.102 50.2494 102.566 56.5497 107.494 61.4405C112.545 66.3312 118.766 68.7766 126.157 68.7766ZM198.354 17.5479H175.258V0H238.821V17.5479H215.719V84.9094H198.349L198.354 17.5479ZM265.466 0H285.052L315.174 84.9094H296.139L289.671 64.5538H259.858L253.451 84.9094H234.236L265.466 0ZM283.944 48.5965L278.038 31.541L274.663 21.6349L271.513 31.541L265.416 48.5965H283.894H283.944ZM326.081 0H356.754C365.006 0 371.717 3.96244 376.892 8.80228C382.191 13.5685 384.84 19.7443 384.84 27.3239C384.893 32.6765 383.059 37.8748 379.665 41.9962C376.366 46.1735 371.837 49.1917 366.727 50.6173V51.3532L388.755 84.1849V84.9094H368.438L347.512 52.8137H343.26V84.9094H326.081V0ZM357.131 36.6809C360.214 36.6809 362.678 35.8318 364.523 34.1109C366.368 32.3901 367.296 30.0749 367.296 27.1484C367.296 24.2218 366.373 21.884 364.523 20.1858C362.672 18.4876 360.208 17.5479 357.188 17.5479H343.327V36.6243H357.188L357.131 36.6809ZM422.618 0.367941H442.204L473.102 84.9094H454.067L447.879 64.5538H418.067L411.379 84.9094H392.164L422.618 0.367941ZM442.204 48.5965L436.298 31.541L432.922 21.6349L429.784 31.541L423.686 48.5965H442.164H442.204ZM483.789 0.367941H500.974L501.536 36.4941H502.459L531.709 0.367941H552.037V1.47176L522.788 36.4997L555.497 82.532V84.9094H534.375L510.722 50.2494L501.48 60.8914V84.9094H484.296L483.733 0.367941H483.789ZM589.894 0.367941H609.48L640.716 84.9094H621.681L615.212 64.5538H585.399L578.998 84.9094H559.777L589.894 0.367941ZM609.48 48.5965L603.574 31.541L600.199 21.6349L597.049 31.541L590.951 48.5965H609.429H609.48ZM651.628 0.367941H671.586L703.552 54.2854L702.821 37.779V0.367941H720V84.9094H701.887L668.137 27.6918L668.869 44.0114V84.9094H651.684V0.367941H651.628Z" fill="black" fill-opacity="0.01"/>
</svg>
